<svg width="360" height="350" viewBox="0 0 360 350" fill="none" xmlns="http://www.w3.org/2000/svg">
<rect width="360" height="350" fill="white"/>
<g filter="url(#filter0_d)">
<rect width="120" height="120" fill="#E9E9E9" transform="translate(204 194)"/>
<path d="M216.23 217.32V224H213.98V206.938H220.273C222.141 206.938 223.602 207.414 224.656 208.367C225.719 209.32 226.25 210.582 226.25 212.152C226.25 213.809 225.73 215.086 224.691 215.984C223.66 216.875 222.18 217.32 220.25 217.32H216.23ZM216.23 215.48H220.273C221.477 215.48 222.398 215.199 223.039 214.637C223.68 214.066 224 213.246 224 212.176C224 211.16 223.68 210.348 223.039 209.738C222.398 209.129 221.52 208.812 220.402 208.789H216.23V215.48ZM228.043 217.543C228.043 216.301 228.285 215.184 228.77 214.191C229.262 213.199 229.941 212.434 230.809 211.895C231.684 211.355 232.68 211.086 233.797 211.086C235.523 211.086 236.918 211.684 237.98 212.879C239.051 214.074 239.586 215.664 239.586 217.648V217.801C239.586 219.035 239.348 220.145 238.871 221.129C238.402 222.105 237.727 222.867 236.844 223.414C235.969 223.961 234.961 224.234 233.82 224.234C232.102 224.234 230.707 223.637 229.637 222.441C228.574 221.246 228.043 219.664 228.043 217.695V217.543ZM230.223 217.801C230.223 219.207 230.547 220.336 231.195 221.188C231.852 222.039 232.727 222.465 233.82 222.465C234.922 222.465 235.797 222.035 236.445 221.176C237.094 220.309 237.418 219.098 237.418 217.543C237.418 216.152 237.086 215.027 236.422 214.168C235.766 213.301 234.891 212.867 233.797 212.867C232.727 212.867 231.863 213.293 231.207 214.145C230.551 214.996 230.223 216.215 230.223 217.801ZM249.688 220.637C249.688 220.051 249.465 219.598 249.02 219.277C248.582 218.949 247.812 218.668 246.711 218.434C245.617 218.199 244.746 217.918 244.098 217.59C243.457 217.262 242.98 216.871 242.668 216.418C242.363 215.965 242.211 215.426 242.211 214.801C242.211 213.762 242.648 212.883 243.523 212.164C244.406 211.445 245.531 211.086 246.898 211.086C248.336 211.086 249.5 211.457 250.391 212.199C251.289 212.941 251.738 213.891 251.738 215.047H249.559C249.559 214.453 249.305 213.941 248.797 213.512C248.297 213.082 247.664 212.867 246.898 212.867C246.109 212.867 245.492 213.039 245.047 213.383C244.602 213.727 244.379 214.176 244.379 214.73C244.379 215.254 244.586 215.648 245 215.914C245.414 216.18 246.16 216.434 247.238 216.676C248.324 216.918 249.203 217.207 249.875 217.543C250.547 217.879 251.043 218.285 251.363 218.762C251.691 219.23 251.855 219.805 251.855 220.484C251.855 221.617 251.402 222.527 250.496 223.215C249.59 223.895 248.414 224.234 246.969 224.234C245.953 224.234 245.055 224.055 244.273 223.695C243.492 223.336 242.879 222.836 242.434 222.195C241.996 221.547 241.777 220.848 241.777 220.098H243.945C243.984 220.824 244.273 221.402 244.812 221.832C245.359 222.254 246.078 222.465 246.969 222.465C247.789 222.465 248.445 222.301 248.938 221.973C249.438 221.637 249.688 221.191 249.688 220.637ZM257.035 224H254.867V211.32H257.035V224ZM254.691 207.957C254.691 207.605 254.797 207.309 255.008 207.066C255.227 206.824 255.547 206.703 255.969 206.703C256.391 206.703 256.711 206.824 256.93 207.066C257.148 207.309 257.258 207.605 257.258 207.957C257.258 208.309 257.148 208.602 256.93 208.836C256.711 209.07 256.391 209.188 255.969 209.188C255.547 209.188 255.227 209.07 255.008 208.836C254.797 208.602 254.691 208.309 254.691 207.957ZM263.457 208.25V211.32H265.824V212.996H263.457V220.859C263.457 221.367 263.562 221.75 263.773 222.008C263.984 222.258 264.344 222.383 264.852 222.383C265.102 222.383 265.445 222.336 265.883 222.242V224C265.312 224.156 264.758 224.234 264.219 224.234C263.25 224.234 262.52 223.941 262.027 223.355C261.535 222.77 261.289 221.938 261.289 220.859V212.996H258.98V211.32H261.289V208.25H263.457ZM270.723 224H268.555V211.32H270.723V224ZM268.379 207.957C268.379 207.605 268.484 207.309 268.695 207.066C268.914 206.824 269.234 206.703 269.656 206.703C270.078 206.703 270.398 206.824 270.617 207.066C270.836 207.309 270.945 207.605 270.945 207.957C270.945 208.309 270.836 208.602 270.617 208.836C270.398 209.07 270.078 209.188 269.656 209.188C269.234 209.188 268.914 209.07 268.695 208.836C268.484 208.602 268.379 208.309 268.379 207.957ZM273.629 217.543C273.629 216.301 273.871 215.184 274.355 214.191C274.848 213.199 275.527 212.434 276.395 211.895C277.27 211.355 278.266 211.086 279.383 211.086C281.109 211.086 282.504 211.684 283.566 212.879C284.637 214.074 285.172 215.664 285.172 217.648V217.801C285.172 219.035 284.934 220.145 284.457 221.129C283.988 222.105 283.312 222.867 282.43 223.414C281.555 223.961 280.547 224.234 279.406 224.234C277.688 224.234 276.293 223.637 275.223 222.441C274.16 221.246 273.629 219.664 273.629 217.695V217.543ZM275.809 217.801C275.809 219.207 276.133 220.336 276.781 221.188C277.438 222.039 278.312 222.465 279.406 222.465C280.508 222.465 281.383 222.035 282.031 221.176C282.68 220.309 283.004 219.098 283.004 217.543C283.004 216.152 282.672 215.027 282.008 214.168C281.352 213.301 280.477 212.867 279.383 212.867C278.312 212.867 277.449 213.293 276.793 214.145C276.137 214.996 275.809 216.215 275.809 217.801ZM289.941 211.32L290.012 212.914C290.98 211.695 292.246 211.086 293.809 211.086C296.488 211.086 297.84 212.598 297.863 215.621V224H295.695V215.609C295.688 214.695 295.477 214.02 295.062 213.582C294.656 213.145 294.02 212.926 293.152 212.926C292.449 212.926 291.832 213.113 291.301 213.488C290.77 213.863 290.355 214.355 290.059 214.965V224H287.891V211.32H289.941ZM308.516 220.637C308.516 220.051 308.293 219.598 307.848 219.277C307.41 218.949 306.641 218.668 305.539 218.434C304.445 218.199 303.574 217.918 302.926 217.59C302.285 217.262 301.809 216.871 301.496 216.418C301.191 215.965 301.039 215.426 301.039 214.801C301.039 213.762 301.477 212.883 302.352 212.164C303.234 211.445 304.359 211.086 305.727 211.086C307.164 211.086 308.328 211.457 309.219 212.199C310.117 212.941 310.566 213.891 310.566 215.047H308.387C308.387 214.453 308.133 213.941 307.625 213.512C307.125 213.082 306.492 212.867 305.727 212.867C304.938 212.867 304.32 213.039 303.875 213.383C303.43 213.727 303.207 214.176 303.207 214.73C303.207 215.254 303.414 215.648 303.828 215.914C304.242 216.18 304.988 216.434 306.066 216.676C307.152 216.918 308.031 217.207 308.703 217.543C309.375 217.879 309.871 218.285 310.191 218.762C310.52 219.23 310.684 219.805 310.684 220.484C310.684 221.617 310.23 222.527 309.324 223.215C308.418 223.895 307.242 224.234 305.797 224.234C304.781 224.234 303.883 224.055 303.102 223.695C302.32 223.336 301.707 222.836 301.262 222.195C300.824 221.547 300.605 220.848 300.605 220.098H302.773C302.812 220.824 303.102 221.402 303.641 221.832C304.188 222.254 304.906 222.465 305.797 222.465C306.617 222.465 307.273 222.301 307.766 221.973C308.266 221.637 308.516 221.191 308.516 220.637Z" fill="black"/>
<path d="M234.197 241.537C234.197 240.654 234.314 239.807 234.549 238.994C234.787 238.182 235.141 237.443 235.609 236.779C236.078 236.115 236.564 235.646 237.068 235.373L237.291 236.088C236.721 236.525 236.252 237.193 235.885 238.092C235.521 238.99 235.322 239.996 235.287 241.109L235.281 241.607C235.281 243.115 235.557 244.424 236.107 245.533C236.439 246.197 236.834 246.717 237.291 247.092L237.068 247.754C236.549 247.465 236.053 246.98 235.58 246.301C234.658 244.973 234.197 243.385 234.197 241.537ZM239.518 245H238.434V238.66H239.518V245ZM238.346 236.979C238.346 236.803 238.398 236.654 238.504 236.533C238.613 236.412 238.773 236.352 238.984 236.352C239.195 236.352 239.355 236.412 239.465 236.533C239.574 236.654 239.629 236.803 239.629 236.979C239.629 237.154 239.574 237.301 239.465 237.418C239.355 237.535 239.195 237.594 238.984 237.594C238.773 237.594 238.613 237.535 238.504 237.418C238.398 237.301 238.346 237.154 238.346 236.979ZM242.283 238.66L242.318 239.457C242.803 238.848 243.436 238.543 244.217 238.543C245.557 238.543 246.232 239.299 246.244 240.811V245H245.16V240.805C245.156 240.348 245.051 240.01 244.844 239.791C244.641 239.572 244.322 239.463 243.889 239.463C243.537 239.463 243.229 239.557 242.963 239.744C242.697 239.932 242.49 240.178 242.342 240.482V245H241.258V238.66H242.283ZM249.35 237.125V238.66H250.533V239.498H249.35V243.43C249.35 243.684 249.402 243.875 249.508 244.004C249.613 244.129 249.793 244.191 250.047 244.191C250.172 244.191 250.344 244.168 250.562 244.121V245C250.277 245.078 250 245.117 249.73 245.117C249.246 245.117 248.881 244.971 248.635 244.678C248.389 244.385 248.266 243.969 248.266 243.43V239.498H247.111V238.66H248.266V237.125H249.35ZM254.307 241.596C254.307 242.467 254.191 243.303 253.961 244.104C253.734 244.9 253.385 245.637 252.912 246.312C252.443 246.988 251.951 247.469 251.436 247.754L251.207 247.092C251.809 246.631 252.291 245.916 252.654 244.947C253.021 243.975 253.209 242.896 253.217 241.713V241.525C253.217 240.705 253.131 239.943 252.959 239.24C252.787 238.533 252.547 237.9 252.238 237.342C251.934 236.783 251.59 236.348 251.207 236.035L251.436 235.373C251.951 235.658 252.441 236.135 252.906 236.803C253.375 237.471 253.725 238.207 253.955 239.012C254.189 239.816 254.307 240.678 254.307 241.596ZM260.248 241.66V245H259.123V236.469H262.27C263.203 236.469 263.934 236.707 264.461 237.184C264.992 237.66 265.258 238.291 265.258 239.076C265.258 239.904 264.998 240.543 264.479 240.992C263.963 241.438 263.223 241.66 262.258 241.66H260.248ZM260.248 240.74H262.27C262.871 240.74 263.332 240.6 263.652 240.318C263.973 240.033 264.133 239.623 264.133 239.088C264.133 238.58 263.973 238.174 263.652 237.869C263.332 237.564 262.893 237.406 262.334 237.395H260.248V240.74ZM266.154 241.771C266.154 241.15 266.275 240.592 266.518 240.096C266.764 239.6 267.104 239.217 267.537 238.947C267.975 238.678 268.473 238.543 269.031 238.543C269.895 238.543 270.592 238.842 271.123 239.439C271.658 240.037 271.926 240.832 271.926 241.824V241.9C271.926 242.518 271.807 243.072 271.568 243.564C271.334 244.053 270.996 244.434 270.555 244.707C270.117 244.98 269.613 245.117 269.043 245.117C268.184 245.117 267.486 244.818 266.951 244.221C266.42 243.623 266.154 242.832 266.154 241.848V241.771ZM267.244 241.9C267.244 242.604 267.406 243.168 267.73 243.594C268.059 244.02 268.496 244.232 269.043 244.232C269.594 244.232 270.031 244.018 270.355 243.588C270.68 243.154 270.842 242.549 270.842 241.771C270.842 241.076 270.676 240.514 270.344 240.084C270.016 239.65 269.578 239.434 269.031 239.434C268.496 239.434 268.064 239.646 267.736 240.072C267.408 240.498 267.244 241.107 267.244 241.9ZM276.977 243.318C276.977 243.025 276.865 242.799 276.643 242.639C276.424 242.475 276.039 242.334 275.488 242.217C274.941 242.1 274.506 241.959 274.182 241.795C273.861 241.631 273.623 241.436 273.467 241.209C273.314 240.982 273.238 240.713 273.238 240.4C273.238 239.881 273.457 239.441 273.895 239.082C274.336 238.723 274.898 238.543 275.582 238.543C276.301 238.543 276.883 238.729 277.328 239.1C277.777 239.471 278.002 239.945 278.002 240.523H276.912C276.912 240.227 276.785 239.971 276.531 239.756C276.281 239.541 275.965 239.434 275.582 239.434C275.188 239.434 274.879 239.52 274.656 239.691C274.434 239.863 274.322 240.088 274.322 240.365C274.322 240.627 274.426 240.824 274.633 240.957C274.84 241.09 275.213 241.217 275.752 241.338C276.295 241.459 276.734 241.604 277.07 241.771C277.406 241.939 277.654 242.143 277.814 242.381C277.979 242.615 278.061 242.902 278.061 243.242C278.061 243.809 277.834 244.264 277.381 244.607C276.928 244.947 276.34 245.117 275.617 245.117C275.109 245.117 274.66 245.027 274.27 244.848C273.879 244.668 273.572 244.418 273.35 244.098C273.131 243.773 273.021 243.424 273.021 243.049H274.105C274.125 243.412 274.27 243.701 274.539 243.916C274.812 244.127 275.172 244.232 275.617 244.232C276.027 244.232 276.355 244.15 276.602 243.986C276.852 243.818 276.977 243.596 276.977 243.318ZM280.65 245H279.566V238.66H280.65V245ZM279.479 236.979C279.479 236.803 279.531 236.654 279.637 236.533C279.746 236.412 279.906 236.352 280.117 236.352C280.328 236.352 280.488 236.412 280.598 236.533C280.707 236.654 280.762 236.803 280.762 236.979C280.762 237.154 280.707 237.301 280.598 237.418C280.488 237.535 280.328 237.594 280.117 237.594C279.906 237.594 279.746 237.535 279.637 237.418C279.531 237.301 279.479 237.154 279.479 236.979ZM283.861 237.125V238.66H285.045V239.498H283.861V243.43C283.861 243.684 283.914 243.875 284.02 244.004C284.125 244.129 284.305 244.191 284.559 244.191C284.684 244.191 284.855 244.168 285.074 244.121V245C284.789 245.078 284.512 245.117 284.242 245.117C283.758 245.117 283.393 244.971 283.146 244.678C282.9 244.385 282.777 243.969 282.777 243.43V239.498H281.623V238.66H282.777V237.125H283.861ZM287.494 245H286.41V238.66H287.494V245ZM286.322 236.979C286.322 236.803 286.375 236.654 286.48 236.533C286.59 236.412 286.75 236.352 286.961 236.352C287.172 236.352 287.332 236.412 287.441 236.533C287.551 236.654 287.605 236.803 287.605 236.979C287.605 237.154 287.551 237.301 287.441 237.418C287.332 237.535 287.172 237.594 286.961 237.594C286.75 237.594 286.59 237.535 286.48 237.418C286.375 237.301 286.322 237.154 286.322 236.979ZM288.947 241.771C288.947 241.15 289.068 240.592 289.311 240.096C289.557 239.6 289.896 239.217 290.33 238.947C290.768 238.678 291.266 238.543 291.824 238.543C292.688 238.543 293.385 238.842 293.916 239.439C294.451 240.037 294.719 240.832 294.719 241.824V241.9C294.719 242.518 294.6 243.072 294.361 243.564C294.127 244.053 293.789 244.434 293.348 244.707C292.91 244.98 292.406 245.117 291.836 245.117C290.977 245.117 290.279 244.818 289.744 244.221C289.213 243.623 288.947 242.832 288.947 241.848V241.771ZM290.037 241.9C290.037 242.604 290.199 243.168 290.523 243.594C290.852 244.02 291.289 244.232 291.836 244.232C292.387 244.232 292.824 244.018 293.148 243.588C293.473 243.154 293.635 242.549 293.635 241.771C293.635 241.076 293.469 240.514 293.137 240.084C292.809 239.65 292.371 239.434 291.824 239.434C291.289 239.434 290.857 239.646 290.529 240.072C290.201 240.498 290.037 241.107 290.037 241.9ZM297.104 238.66L297.139 239.457C297.623 238.848 298.256 238.543 299.037 238.543C300.377 238.543 301.053 239.299 301.064 240.811V245H299.98V240.805C299.977 240.348 299.871 240.01 299.664 239.791C299.461 239.572 299.143 239.463 298.709 239.463C298.357 239.463 298.049 239.557 297.783 239.744C297.518 239.932 297.311 240.178 297.162 240.482V245H296.078V238.66H297.104ZM307.053 245H305.928V236.469H307.053V245ZM309.115 245V236.469H311.523C312.266 236.469 312.922 236.633 313.492 236.961C314.062 237.289 314.502 237.756 314.811 238.361C315.123 238.967 315.281 239.662 315.285 240.447V240.992C315.285 241.797 315.129 242.502 314.816 243.107C314.508 243.713 314.064 244.178 313.486 244.502C312.912 244.826 312.242 244.992 311.477 245H309.115ZM310.24 237.395V244.08H311.424C312.291 244.08 312.965 243.811 313.445 243.271C313.93 242.732 314.172 241.965 314.172 240.969V240.471C314.172 239.502 313.943 238.75 313.486 238.215C313.033 237.676 312.389 237.402 311.553 237.395H310.24Z" fill="black"/>
<path d="M258.385 259.537C258.385 258.654 258.502 257.807 258.736 256.994C258.975 256.182 259.328 255.443 259.797 254.779C260.266 254.115 260.752 253.646 261.256 253.373L261.479 254.088C260.908 254.525 260.439 255.193 260.072 256.092C259.709 256.99 259.51 257.996 259.475 259.109L259.469 259.607C259.469 261.115 259.744 262.424 260.295 263.533C260.627 264.197 261.021 264.717 261.479 265.092L261.256 265.754C260.736 265.465 260.24 264.98 259.768 264.301C258.846 262.973 258.385 261.385 258.385 259.537ZM263.705 263H262.621V256.66H263.705V263ZM262.533 254.979C262.533 254.803 262.586 254.654 262.691 254.533C262.801 254.412 262.961 254.352 263.172 254.352C263.383 254.352 263.543 254.412 263.652 254.533C263.762 254.654 263.816 254.803 263.816 254.979C263.816 255.154 263.762 255.301 263.652 255.418C263.543 255.535 263.383 255.594 263.172 255.594C262.961 255.594 262.801 255.535 262.691 255.418C262.586 255.301 262.533 255.154 262.533 254.979ZM266.471 256.66L266.506 257.457C266.99 256.848 267.623 256.543 268.404 256.543C269.744 256.543 270.42 257.299 270.432 258.811V263H269.348V258.805C269.344 258.348 269.238 258.01 269.031 257.791C268.828 257.572 268.51 257.463 268.076 257.463C267.725 257.463 267.416 257.557 267.15 257.744C266.885 257.932 266.678 258.178 266.529 258.482V263H265.445V256.66H266.471ZM273.537 255.125V256.66H274.721V257.498H273.537V261.43C273.537 261.684 273.59 261.875 273.695 262.004C273.801 262.129 273.98 262.191 274.234 262.191C274.359 262.191 274.531 262.168 274.75 262.121V263C274.465 263.078 274.188 263.117 273.918 263.117C273.434 263.117 273.068 262.971 272.822 262.678C272.576 262.385 272.453 261.969 272.453 261.43V257.498H271.299V256.66H272.453V255.125H273.537ZM278.494 259.596C278.494 260.467 278.379 261.303 278.148 262.104C277.922 262.9 277.572 263.637 277.1 264.312C276.631 264.988 276.139 265.469 275.623 265.754L275.395 265.092C275.996 264.631 276.479 263.916 276.842 262.947C277.209 261.975 277.396 260.896 277.404 259.713V259.525C277.404 258.705 277.318 257.943 277.146 257.24C276.975 256.533 276.734 255.9 276.426 255.342C276.121 254.783 275.777 254.348 275.395 254.035L275.623 253.373C276.139 253.658 276.629 254.135 277.094 254.803C277.562 255.471 277.912 256.207 278.143 257.012C278.377 257.816 278.494 258.678 278.494 259.596ZM284.441 262.08H288.484V263H283.311V254.469H284.441V262.08ZM292.229 263.117C291.369 263.117 290.67 262.836 290.131 262.273C289.592 261.707 289.322 260.951 289.322 260.006V259.807C289.322 259.178 289.441 258.617 289.68 258.125C289.922 257.629 290.258 257.242 290.688 256.965C291.121 256.684 291.59 256.543 292.094 256.543C292.918 256.543 293.559 256.814 294.016 257.357C294.473 257.9 294.701 258.678 294.701 259.689V260.141H290.406C290.422 260.766 290.604 261.271 290.951 261.658C291.303 262.041 291.748 262.232 292.287 262.232C292.67 262.232 292.994 262.154 293.26 261.998C293.525 261.842 293.758 261.635 293.957 261.377L294.619 261.893C294.088 262.709 293.291 263.117 292.229 263.117ZM292.094 257.434C291.656 257.434 291.289 257.594 290.992 257.914C290.695 258.23 290.512 258.676 290.441 259.25H293.617V259.168C293.586 258.617 293.438 258.191 293.172 257.891C292.906 257.586 292.547 257.434 292.094 257.434ZM295.703 259.777C295.703 258.789 295.932 258.004 296.389 257.422C296.846 256.836 297.451 256.543 298.205 256.543C298.979 256.543 299.582 256.816 300.016 257.363L300.068 256.66H301.059V262.848C301.059 263.668 300.814 264.314 300.326 264.787C299.842 265.26 299.189 265.496 298.369 265.496C297.912 265.496 297.465 265.398 297.027 265.203C296.59 265.008 296.256 264.74 296.025 264.4L296.588 263.75C297.053 264.324 297.621 264.611 298.293 264.611C298.82 264.611 299.23 264.463 299.523 264.166C299.82 263.869 299.969 263.451 299.969 262.912V262.367C299.535 262.867 298.943 263.117 298.193 263.117C297.451 263.117 296.85 262.818 296.389 262.221C295.932 261.623 295.703 260.809 295.703 259.777ZM296.793 259.9C296.793 260.615 296.939 261.178 297.232 261.588C297.525 261.994 297.936 262.197 298.463 262.197C299.146 262.197 299.648 261.887 299.969 261.266V258.371C299.637 257.766 299.139 257.463 298.475 257.463C297.947 257.463 297.535 257.668 297.238 258.078C296.941 258.488 296.793 259.096 296.793 259.9ZM307.053 263H305.928V254.469H307.053V263ZM309.115 263V254.469H311.523C312.266 254.469 312.922 254.633 313.492 254.961C314.062 255.289 314.502 255.756 314.811 256.361C315.123 256.967 315.281 257.662 315.285 258.447V258.992C315.285 259.797 315.129 260.502 314.816 261.107C314.508 261.713 314.064 262.178 313.486 262.502C312.912 262.826 312.242 262.992 311.477 263H309.115ZM310.24 255.395V262.08H311.424C312.291 262.08 312.965 261.811 313.445 261.271C313.93 260.732 314.172 259.965 314.172 258.969V258.471C314.172 257.502 313.943 256.75 313.486 256.215C313.033 255.676 312.389 255.402 311.553 255.395H310.24Z" fill="black"/>
<path d="M225.057 277.537C225.057 276.654 225.174 275.807 225.408 274.994C225.646 274.182 226 273.443 226.469 272.779C226.938 272.115 227.424 271.646 227.928 271.373L228.15 272.088C227.58 272.525 227.111 273.193 226.744 274.092C226.381 274.99 226.182 275.996 226.146 277.109L226.141 277.607C226.141 279.115 226.416 280.424 226.967 281.533C227.299 282.197 227.693 282.717 228.15 283.092L227.928 283.754C227.408 283.465 226.912 282.98 226.439 282.301C225.518 280.973 225.057 279.385 225.057 277.537ZM230.5 280.08H234.543V281H229.369V272.469H230.5V280.08ZM239.57 281C239.508 280.875 239.457 280.652 239.418 280.332C238.914 280.855 238.312 281.117 237.613 281.117C236.988 281.117 236.475 280.941 236.072 280.59C235.674 280.234 235.475 279.785 235.475 279.242C235.475 278.582 235.725 278.07 236.225 277.707C236.729 277.34 237.436 277.156 238.346 277.156H239.4V276.658C239.4 276.279 239.287 275.979 239.061 275.756C238.834 275.529 238.5 275.416 238.059 275.416C237.672 275.416 237.348 275.514 237.086 275.709C236.824 275.904 236.693 276.141 236.693 276.418H235.604C235.604 276.102 235.715 275.797 235.938 275.504C236.164 275.207 236.469 274.973 236.852 274.801C237.238 274.629 237.662 274.543 238.123 274.543C238.854 274.543 239.426 274.727 239.84 275.094C240.254 275.457 240.469 275.959 240.484 276.6V279.518C240.484 280.1 240.559 280.562 240.707 280.906V281H239.57ZM237.771 280.174C238.111 280.174 238.434 280.086 238.738 279.91C239.043 279.734 239.264 279.506 239.4 279.225V277.924H238.551C237.223 277.924 236.559 278.312 236.559 279.09C236.559 279.43 236.672 279.695 236.898 279.887C237.125 280.078 237.416 280.174 237.771 280.174ZM243.654 273.125V274.66H244.838V275.498H243.654V279.43C243.654 279.684 243.707 279.875 243.812 280.004C243.918 280.129 244.098 280.191 244.352 280.191C244.477 280.191 244.648 280.168 244.867 280.121V281C244.582 281.078 244.305 281.117 244.035 281.117C243.551 281.117 243.186 280.971 242.939 280.678C242.693 280.385 242.57 279.969 242.57 279.43V275.498H241.416V274.66H242.57V273.125H243.654ZM247.41 280.08H251.453V281H246.279V272.469H247.41V280.08ZM253.592 274.66L253.627 275.457C254.111 274.848 254.744 274.543 255.525 274.543C256.865 274.543 257.541 275.299 257.553 276.811V281H256.469V276.805C256.465 276.348 256.359 276.01 256.152 275.791C255.949 275.572 255.631 275.463 255.197 275.463C254.846 275.463 254.537 275.557 254.271 275.744C254.006 275.932 253.799 276.178 253.65 276.482V281H252.566V274.66H253.592ZM258.93 277.777C258.93 276.789 259.158 276.004 259.615 275.422C260.072 274.836 260.678 274.543 261.432 274.543C262.205 274.543 262.809 274.816 263.242 275.363L263.295 274.66H264.285V280.848C264.285 281.668 264.041 282.314 263.553 282.787C263.068 283.26 262.416 283.496 261.596 283.496C261.139 283.496 260.691 283.398 260.254 283.203C259.816 283.008 259.482 282.74 259.252 282.4L259.814 281.75C260.279 282.324 260.848 282.611 261.52 282.611C262.047 282.611 262.457 282.463 262.75 282.166C263.047 281.869 263.195 281.451 263.195 280.912V280.367C262.762 280.867 262.17 281.117 261.42 281.117C260.678 281.117 260.076 280.818 259.615 280.221C259.158 279.623 258.93 278.809 258.93 277.777ZM260.02 277.9C260.02 278.615 260.166 279.178 260.459 279.588C260.752 279.994 261.162 280.197 261.689 280.197C262.373 280.197 262.875 279.887 263.195 279.266V276.371C262.863 275.766 262.365 275.463 261.701 275.463C261.174 275.463 260.762 275.668 260.465 276.078C260.168 276.488 260.02 277.096 260.02 277.9ZM268.428 277.596C268.428 278.467 268.312 279.303 268.082 280.104C267.855 280.9 267.506 281.637 267.033 282.312C266.564 282.988 266.072 283.469 265.557 283.754L265.328 283.092C265.93 282.631 266.412 281.916 266.775 280.947C267.143 279.975 267.33 278.896 267.338 277.713V277.525C267.338 276.705 267.252 275.943 267.08 275.24C266.908 274.533 266.668 273.9 266.359 273.342C266.055 272.783 265.711 272.348 265.328 272.035L265.557 271.373C266.072 271.658 266.562 272.135 267.027 272.803C267.496 273.471 267.846 274.207 268.076 275.012C268.311 275.816 268.428 276.678 268.428 277.596ZM274.369 277.66V281H273.244V272.469H276.391C277.324 272.469 278.055 272.707 278.582 273.184C279.113 273.66 279.379 274.291 279.379 275.076C279.379 275.904 279.119 276.543 278.6 276.992C278.084 277.438 277.344 277.66 276.379 277.66H274.369ZM274.369 276.74H276.391C276.992 276.74 277.453 276.6 277.773 276.318C278.094 276.033 278.254 275.623 278.254 275.088C278.254 274.58 278.094 274.174 277.773 273.869C277.453 273.564 277.014 273.406 276.455 273.395H274.369V276.74ZM280.275 277.771C280.275 277.15 280.396 276.592 280.639 276.096C280.885 275.6 281.225 275.217 281.658 274.947C282.096 274.678 282.594 274.543 283.152 274.543C284.016 274.543 284.713 274.842 285.244 275.439C285.779 276.037 286.047 276.832 286.047 277.824V277.9C286.047 278.518 285.928 279.072 285.689 279.564C285.455 280.053 285.117 280.434 284.676 280.707C284.238 280.98 283.734 281.117 283.164 281.117C282.305 281.117 281.607 280.818 281.072 280.221C280.541 279.623 280.275 278.832 280.275 277.848V277.771ZM281.365 277.9C281.365 278.604 281.527 279.168 281.852 279.594C282.18 280.02 282.617 280.232 283.164 280.232C283.715 280.232 284.152 280.018 284.477 279.588C284.801 279.154 284.963 278.549 284.963 277.771C284.963 277.076 284.797 276.514 284.465 276.084C284.137 275.65 283.699 275.434 283.152 275.434C282.617 275.434 282.186 275.646 281.857 276.072C281.529 276.498 281.365 277.107 281.365 277.9ZM291.098 279.318C291.098 279.025 290.986 278.799 290.764 278.639C290.545 278.475 290.16 278.334 289.609 278.217C289.062 278.1 288.627 277.959 288.303 277.795C287.982 277.631 287.744 277.436 287.588 277.209C287.436 276.982 287.359 276.713 287.359 276.4C287.359 275.881 287.578 275.441 288.016 275.082C288.457 274.723 289.02 274.543 289.703 274.543C290.422 274.543 291.004 274.729 291.449 275.1C291.898 275.471 292.123 275.945 292.123 276.523H291.033C291.033 276.227 290.906 275.971 290.652 275.756C290.402 275.541 290.086 275.434 289.703 275.434C289.309 275.434 289 275.52 288.777 275.691C288.555 275.863 288.443 276.088 288.443 276.365C288.443 276.627 288.547 276.824 288.754 276.957C288.961 277.09 289.334 277.217 289.873 277.338C290.416 277.459 290.855 277.604 291.191 277.771C291.527 277.939 291.775 278.143 291.936 278.381C292.1 278.615 292.182 278.902 292.182 279.242C292.182 279.809 291.955 280.264 291.502 280.607C291.049 280.947 290.461 281.117 289.738 281.117C289.23 281.117 288.781 281.027 288.391 280.848C288 280.668 287.693 280.418 287.471 280.098C287.252 279.773 287.143 279.424 287.143 279.049H288.227C288.246 279.412 288.391 279.701 288.66 279.916C288.934 280.127 289.293 280.232 289.738 280.232C290.148 280.232 290.477 280.15 290.723 279.986C290.973 279.818 291.098 279.596 291.098 279.318ZM294.771 281H293.688V274.66H294.771V281ZM293.6 272.979C293.6 272.803 293.652 272.654 293.758 272.533C293.867 272.412 294.027 272.352 294.238 272.352C294.449 272.352 294.609 272.412 294.719 272.533C294.828 272.654 294.883 272.803 294.883 272.979C294.883 273.154 294.828 273.301 294.719 273.418C294.609 273.535 294.449 273.594 294.238 273.594C294.027 273.594 293.867 273.535 293.758 273.418C293.652 273.301 293.6 273.154 293.6 272.979ZM297.982 273.125V274.66H299.166V275.498H297.982V279.43C297.982 279.684 298.035 279.875 298.141 280.004C298.246 280.129 298.426 280.191 298.68 280.191C298.805 280.191 298.977 280.168 299.195 280.121V281C298.91 281.078 298.633 281.117 298.363 281.117C297.879 281.117 297.514 280.971 297.268 280.678C297.021 280.385 296.898 279.969 296.898 279.43V275.498H295.744V274.66H296.898V273.125H297.982ZM301.615 281H300.531V274.66H301.615V281ZM300.443 272.979C300.443 272.803 300.496 272.654 300.602 272.533C300.711 272.412 300.871 272.352 301.082 272.352C301.293 272.352 301.453 272.412 301.562 272.533C301.672 272.654 301.727 272.803 301.727 272.979C301.727 273.154 301.672 273.301 301.562 273.418C301.453 273.535 301.293 273.594 301.082 273.594C300.871 273.594 300.711 273.535 300.602 273.418C300.496 273.301 300.443 273.154 300.443 272.979ZM303.068 277.771C303.068 277.15 303.189 276.592 303.432 276.096C303.678 275.6 304.018 275.217 304.451 274.947C304.889 274.678 305.387 274.543 305.945 274.543C306.809 274.543 307.506 274.842 308.037 275.439C308.572 276.037 308.84 276.832 308.84 277.824V277.9C308.84 278.518 308.721 279.072 308.482 279.564C308.248 280.053 307.91 280.434 307.469 280.707C307.031 280.98 306.527 281.117 305.957 281.117C305.098 281.117 304.4 280.818 303.865 280.221C303.334 279.623 303.068 278.832 303.068 277.848V277.771ZM304.158 277.9C304.158 278.604 304.32 279.168 304.645 279.594C304.973 280.02 305.41 280.232 305.957 280.232C306.508 280.232 306.945 280.018 307.27 279.588C307.594 279.154 307.756 278.549 307.756 277.771C307.756 277.076 307.59 276.514 307.258 276.084C306.93 275.65 306.492 275.434 305.945 275.434C305.41 275.434 304.979 275.646 304.65 276.072C304.322 276.498 304.158 277.107 304.158 277.9ZM311.225 274.66L311.26 275.457C311.744 274.848 312.377 274.543 313.158 274.543C314.498 274.543 315.174 275.299 315.186 276.811V281H314.102V276.805C314.098 276.348 313.992 276.01 313.785 275.791C313.582 275.572 313.264 275.463 312.83 275.463C312.479 275.463 312.17 275.557 311.904 275.744C311.639 275.932 311.432 276.178 311.283 276.482V281H310.199V274.66H311.225Z" fill="black"/>
<path d="M221.775 295.537C221.775 294.654 221.893 293.807 222.127 292.994C222.365 292.182 222.719 291.443 223.188 290.779C223.656 290.115 224.143 289.646 224.646 289.373L224.869 290.088C224.299 290.525 223.83 291.193 223.463 292.092C223.1 292.99 222.9 293.996 222.865 295.109L222.859 295.607C222.859 297.115 223.135 298.424 223.686 299.533C224.018 300.197 224.412 300.717 224.869 301.092L224.646 301.754C224.127 301.465 223.631 300.98 223.158 300.301C222.236 298.973 221.775 297.385 221.775 295.537ZM227.096 299H226.012V290H227.096V299ZM228.549 295.771C228.549 295.15 228.67 294.592 228.912 294.096C229.158 293.6 229.498 293.217 229.932 292.947C230.369 292.678 230.867 292.543 231.426 292.543C232.289 292.543 232.986 292.842 233.518 293.439C234.053 294.037 234.32 294.832 234.32 295.824V295.9C234.32 296.518 234.201 297.072 233.963 297.564C233.729 298.053 233.391 298.434 232.949 298.707C232.512 298.98 232.008 299.117 231.438 299.117C230.578 299.117 229.881 298.818 229.346 298.221C228.814 297.623 228.549 296.832 228.549 295.848V295.771ZM229.639 295.9C229.639 296.604 229.801 297.168 230.125 297.594C230.453 298.02 230.891 298.232 231.438 298.232C231.988 298.232 232.426 298.018 232.75 297.588C233.074 297.154 233.236 296.549 233.236 295.771C233.236 295.076 233.07 294.514 232.738 294.084C232.41 293.65 231.973 293.434 231.426 293.434C230.891 293.434 230.459 293.646 230.131 294.072C229.803 294.498 229.639 295.107 229.639 295.9ZM236.705 292.66L236.74 293.457C237.225 292.848 237.857 292.543 238.639 292.543C239.979 292.543 240.654 293.299 240.666 294.811V299H239.582V294.805C239.578 294.348 239.473 294.01 239.266 293.791C239.062 293.572 238.744 293.463 238.311 293.463C237.959 293.463 237.65 293.557 237.385 293.744C237.119 293.932 236.912 294.178 236.764 294.482V299H235.68V292.66H236.705ZM242.043 295.777C242.043 294.789 242.271 294.004 242.729 293.422C243.186 292.836 243.791 292.543 244.545 292.543C245.318 292.543 245.922 292.816 246.355 293.363L246.408 292.66H247.398V298.848C247.398 299.668 247.154 300.314 246.666 300.787C246.182 301.26 245.529 301.496 244.709 301.496C244.252 301.496 243.805 301.398 243.367 301.203C242.93 301.008 242.596 300.74 242.365 300.4L242.928 299.75C243.393 300.324 243.961 300.611 244.633 300.611C245.16 300.611 245.57 300.463 245.863 300.166C246.16 299.869 246.309 299.451 246.309 298.912V298.367C245.875 298.867 245.283 299.117 244.533 299.117C243.791 299.117 243.189 298.818 242.729 298.221C242.271 297.623 242.043 296.809 242.043 295.777ZM243.133 295.9C243.133 296.615 243.279 297.178 243.572 297.588C243.865 297.994 244.275 298.197 244.803 298.197C245.486 298.197 245.988 297.887 246.309 297.266V294.371C245.977 293.766 245.479 293.463 244.814 293.463C244.287 293.463 243.875 293.668 243.578 294.078C243.281 294.488 243.133 295.096 243.133 295.9ZM251.541 295.596C251.541 296.467 251.426 297.303 251.195 298.104C250.969 298.9 250.619 299.637 250.146 300.312C249.678 300.988 249.186 301.469 248.67 301.754L248.441 301.092C249.043 300.631 249.525 299.916 249.889 298.947C250.256 297.975 250.443 296.896 250.451 295.713V295.525C250.451 294.705 250.365 293.943 250.193 293.24C250.021 292.533 249.781 291.9 249.473 291.342C249.168 290.783 248.824 290.348 248.441 290.035L248.67 289.373C249.186 289.658 249.676 290.135 250.141 290.803C250.609 291.471 250.959 292.207 251.189 293.012C251.424 293.816 251.541 294.678 251.541 295.596ZM262.018 291.395H259.275V299H258.156V291.395H255.42V290.469H262.018V291.395ZM264.291 299H263.207V292.66H264.291V299ZM263.119 290.979C263.119 290.803 263.172 290.654 263.277 290.533C263.387 290.412 263.547 290.352 263.758 290.352C263.969 290.352 264.129 290.412 264.238 290.533C264.348 290.654 264.402 290.803 264.402 290.979C264.402 291.154 264.348 291.301 264.238 291.418C264.129 291.535 263.969 291.594 263.758 291.594C263.547 291.594 263.387 291.535 263.277 291.418C263.172 291.301 263.119 291.154 263.119 290.979ZM267.051 292.66L267.08 293.363C267.545 292.816 268.172 292.543 268.961 292.543C269.848 292.543 270.451 292.883 270.771 293.562C270.982 293.258 271.256 293.012 271.592 292.824C271.932 292.637 272.332 292.543 272.793 292.543C274.184 292.543 274.891 293.279 274.914 294.752V299H273.83V294.816C273.83 294.363 273.727 294.025 273.52 293.803C273.312 293.576 272.965 293.463 272.477 293.463C272.074 293.463 271.74 293.584 271.475 293.826C271.209 294.064 271.055 294.387 271.012 294.793V299H269.922V294.846C269.922 293.924 269.471 293.463 268.568 293.463C267.857 293.463 267.371 293.766 267.109 294.371V299H266.025V292.66H267.051ZM279.186 299.117C278.326 299.117 277.627 298.836 277.088 298.273C276.549 297.707 276.279 296.951 276.279 296.006V295.807C276.279 295.178 276.398 294.617 276.637 294.125C276.879 293.629 277.215 293.242 277.645 292.965C278.078 292.684 278.547 292.543 279.051 292.543C279.875 292.543 280.516 292.814 280.973 293.357C281.43 293.9 281.658 294.678 281.658 295.689V296.141H277.363C277.379 296.766 277.561 297.271 277.908 297.658C278.26 298.041 278.705 298.232 279.244 298.232C279.627 298.232 279.951 298.154 280.217 297.998C280.482 297.842 280.715 297.635 280.914 297.377L281.576 297.893C281.045 298.709 280.248 299.117 279.186 299.117ZM279.051 293.434C278.613 293.434 278.246 293.594 277.949 293.914C277.652 294.23 277.469 294.676 277.398 295.25H280.574V295.168C280.543 294.617 280.395 294.191 280.129 293.891C279.863 293.586 279.504 293.434 279.051 293.434ZM286.609 297.318C286.609 297.025 286.498 296.799 286.275 296.639C286.057 296.475 285.672 296.334 285.121 296.217C284.574 296.1 284.139 295.959 283.814 295.795C283.494 295.631 283.256 295.436 283.1 295.209C282.947 294.982 282.871 294.713 282.871 294.4C282.871 293.881 283.09 293.441 283.527 293.082C283.969 292.723 284.531 292.543 285.215 292.543C285.934 292.543 286.516 292.729 286.961 293.1C287.41 293.471 287.635 293.945 287.635 294.523H286.545C286.545 294.227 286.418 293.971 286.164 293.756C285.914 293.541 285.598 293.434 285.215 293.434C284.82 293.434 284.512 293.52 284.289 293.691C284.066 293.863 283.955 294.088 283.955 294.365C283.955 294.627 284.059 294.824 284.266 294.957C284.473 295.09 284.846 295.217 285.385 295.338C285.928 295.459 286.367 295.604 286.703 295.771C287.039 295.939 287.287 296.143 287.447 296.381C287.611 296.615 287.693 296.902 287.693 297.242C287.693 297.809 287.467 298.264 287.014 298.607C286.561 298.947 285.973 299.117 285.25 299.117C284.742 299.117 284.293 299.027 283.902 298.848C283.512 298.668 283.205 298.418 282.982 298.098C282.764 297.773 282.654 297.424 282.654 297.049H283.738C283.758 297.412 283.902 297.701 284.172 297.916C284.445 298.127 284.805 298.232 285.25 298.232C285.66 298.232 285.988 298.15 286.234 297.986C286.484 297.818 286.609 297.596 286.609 297.318ZM290.576 291.125V292.66H291.76V293.498H290.576V297.43C290.576 297.684 290.629 297.875 290.734 298.004C290.84 298.129 291.02 298.191 291.273 298.191C291.398 298.191 291.57 298.168 291.789 298.121V299C291.504 299.078 291.227 299.117 290.957 299.117C290.473 299.117 290.107 298.971 289.861 298.678C289.615 298.385 289.492 297.969 289.492 297.43V293.498H288.338V292.66H289.492V291.125H290.576ZM296.945 299C296.883 298.875 296.832 298.652 296.793 298.332C296.289 298.855 295.688 299.117 294.988 299.117C294.363 299.117 293.85 298.941 293.447 298.59C293.049 298.234 292.85 297.785 292.85 297.242C292.85 296.582 293.1 296.07 293.6 295.707C294.104 295.34 294.811 295.156 295.721 295.156H296.775V294.658C296.775 294.279 296.662 293.979 296.436 293.756C296.209 293.529 295.875 293.416 295.434 293.416C295.047 293.416 294.723 293.514 294.461 293.709C294.199 293.904 294.068 294.141 294.068 294.418H292.979C292.979 294.102 293.09 293.797 293.312 293.504C293.539 293.207 293.844 292.973 294.227 292.801C294.613 292.629 295.037 292.543 295.498 292.543C296.229 292.543 296.801 292.727 297.215 293.094C297.629 293.457 297.844 293.959 297.859 294.6V297.518C297.859 298.1 297.934 298.562 298.082 298.906V299H296.945ZM295.146 298.174C295.486 298.174 295.809 298.086 296.113 297.91C296.418 297.734 296.639 297.506 296.775 297.225V295.924H295.926C294.598 295.924 293.934 296.312 293.934 297.09C293.934 297.43 294.047 297.695 294.273 297.887C294.5 298.078 294.791 298.174 295.146 298.174ZM300.578 292.66L300.607 293.363C301.072 292.816 301.699 292.543 302.488 292.543C303.375 292.543 303.979 292.883 304.299 293.562C304.51 293.258 304.783 293.012 305.119 292.824C305.459 292.637 305.859 292.543 306.32 292.543C307.711 292.543 308.418 293.279 308.441 294.752V299H307.357V294.816C307.357 294.363 307.254 294.025 307.047 293.803C306.84 293.576 306.492 293.463 306.004 293.463C305.602 293.463 305.268 293.584 305.002 293.826C304.736 294.064 304.582 294.387 304.539 294.793V299H303.449V294.846C303.449 293.924 302.998 293.463 302.096 293.463C301.385 293.463 300.898 293.766 300.637 294.371V299H299.553V292.66H300.578ZM315.438 295.9C315.438 296.865 315.217 297.643 314.775 298.232C314.334 298.822 313.736 299.117 312.982 299.117C312.213 299.117 311.607 298.873 311.166 298.385V301.438H310.082V292.66H311.072L311.125 293.363C311.566 292.816 312.18 292.543 312.965 292.543C313.727 292.543 314.328 292.83 314.77 293.404C315.215 293.979 315.438 294.777 315.438 295.801V295.9ZM314.354 295.777C314.354 295.062 314.201 294.498 313.896 294.084C313.592 293.67 313.174 293.463 312.643 293.463C311.986 293.463 311.494 293.754 311.166 294.336V297.365C311.49 297.943 311.986 298.232 312.654 298.232C313.174 298.232 313.586 298.027 313.891 297.617C314.199 297.203 314.354 296.59 314.354 295.777Z" fill="black"/>
</g>
<g filter="url(#filter1_d)">
<rect width="120" height="138" fill="#E9E9E9" transform="translate(204 36)"/>
<path d="M226.531 60.5859C226.32 62.3906 225.652 63.7852 224.527 64.7695C223.41 65.7461 221.922 66.2344 220.062 66.2344C218.047 66.2344 216.43 65.5117 215.211 64.0664C214 62.6211 213.395 60.6875 213.395 58.2656V56.625C213.395 55.0391 213.676 53.6445 214.238 52.4414C214.809 51.2383 215.613 50.3164 216.652 49.6758C217.691 49.0273 218.895 48.7031 220.262 48.7031C222.074 48.7031 223.527 49.2109 224.621 50.2266C225.715 51.2344 226.352 52.6328 226.531 54.4219H224.27C224.074 53.0625 223.648 52.0781 222.992 51.4688C222.344 50.8594 221.434 50.5547 220.262 50.5547C218.824 50.5547 217.695 51.0859 216.875 52.1484C216.062 53.2109 215.656 54.7227 215.656 56.6836V58.3359C215.656 60.1875 216.043 61.6602 216.816 62.7539C217.59 63.8477 218.672 64.3945 220.062 64.3945C221.312 64.3945 222.27 64.1133 222.934 63.5508C223.605 62.9805 224.051 61.9922 224.27 60.5859H226.531ZM228.699 59.543C228.699 58.3008 228.941 57.1836 229.426 56.1914C229.918 55.1992 230.598 54.4336 231.465 53.8945C232.34 53.3555 233.336 53.0859 234.453 53.0859C236.18 53.0859 237.574 53.6836 238.637 54.8789C239.707 56.0742 240.242 57.6641 240.242 59.6484V59.8008C240.242 61.0352 240.004 62.1445 239.527 63.1289C239.059 64.1055 238.383 64.8672 237.5 65.4141C236.625 65.9609 235.617 66.2344 234.477 66.2344C232.758 66.2344 231.363 65.6367 230.293 64.4414C229.23 63.2461 228.699 61.6641 228.699 59.6953V59.543ZM230.879 59.8008C230.879 61.207 231.203 62.3359 231.852 63.1875C232.508 64.0391 233.383 64.4648 234.477 64.4648C235.578 64.4648 236.453 64.0352 237.102 63.1758C237.75 62.3086 238.074 61.0977 238.074 59.543C238.074 58.1523 237.742 57.0273 237.078 56.168C236.422 55.3008 235.547 54.8672 234.453 54.8672C233.383 54.8672 232.52 55.293 231.863 56.1445C231.207 56.9961 230.879 58.2148 230.879 59.8008ZM245.012 53.3203L245.082 54.9141C246.051 53.6953 247.316 53.0859 248.879 53.0859C251.559 53.0859 252.91 54.5977 252.934 57.6211V66H250.766V57.6094C250.758 56.6953 250.547 56.0195 250.133 55.582C249.727 55.1445 249.09 54.9258 248.223 54.9258C247.52 54.9258 246.902 55.1133 246.371 55.4883C245.84 55.8633 245.426 56.3555 245.129 56.9648V66H242.961V53.3203H245.012ZM259.145 50.25V53.3203H261.512V54.9961H259.145V62.8594C259.145 63.3672 259.25 63.75 259.461 64.0078C259.672 64.2578 260.031 64.3828 260.539 64.3828C260.789 64.3828 261.133 64.3359 261.57 64.2422V66C261 66.1562 260.445 66.2344 259.906 66.2344C258.938 66.2344 258.207 65.9414 257.715 65.3555C257.223 64.7695 256.977 63.9375 256.977 62.8594V54.9961H254.668V53.3203H256.977V50.25H259.145ZM269.316 66.2344C267.598 66.2344 266.199 65.6719 265.121 64.5469C264.043 63.4141 263.504 61.9023 263.504 60.0117V59.6133C263.504 58.3555 263.742 57.2344 264.219 56.25C264.703 55.2578 265.375 54.4844 266.234 53.9297C267.102 53.3672 268.039 53.0859 269.047 53.0859C270.695 53.0859 271.977 53.6289 272.891 54.7148C273.805 55.8008 274.262 57.3555 274.262 59.3789V60.2812H265.672C265.703 61.5312 266.066 62.543 266.762 63.3164C267.465 64.082 268.355 64.4648 269.434 64.4648C270.199 64.4648 270.848 64.3086 271.379 63.9961C271.91 63.6836 272.375 63.2695 272.773 62.7539L274.098 63.7852C273.035 65.418 271.441 66.2344 269.316 66.2344ZM269.047 54.8672C268.172 54.8672 267.438 55.1875 266.844 55.8281C266.25 56.4609 265.883 57.3516 265.742 58.5H272.094V58.3359C272.031 57.2344 271.734 56.3828 271.203 55.7812C270.672 55.1719 269.953 54.8672 269.047 54.8672ZM278.832 53.3203L278.902 54.9141C279.871 53.6953 281.137 53.0859 282.699 53.0859C285.379 53.0859 286.73 54.5977 286.754 57.6211V66H284.586V57.6094C284.578 56.6953 284.367 56.0195 283.953 55.582C283.547 55.1445 282.91 54.9258 282.043 54.9258C281.34 54.9258 280.723 55.1133 280.191 55.4883C279.66 55.8633 279.246 56.3555 278.949 56.9648V66H276.781V53.3203H278.832ZM292.965 50.25V53.3203H295.332V54.9961H292.965V62.8594C292.965 63.3672 293.07 63.75 293.281 64.0078C293.492 64.2578 293.852 64.3828 294.359 64.3828C294.609 64.3828 294.953 64.3359 295.391 64.2422V66C294.82 66.1562 294.266 66.2344 293.727 66.2344C292.758 66.2344 292.027 65.9414 291.535 65.3555C291.043 64.7695 290.797 63.9375 290.797 62.8594V54.9961H288.488V53.3203H290.797V50.25H292.965Z" fill="black"/>
<path d="M235.826 83.5371C235.826 82.6543 235.943 81.8066 236.178 80.9941C236.416 80.1816 236.77 79.4434 237.238 78.7793C237.707 78.1152 238.193 77.6465 238.697 77.373L238.92 78.0879C238.35 78.5254 237.881 79.1934 237.514 80.0918C237.15 80.9902 236.951 81.9961 236.916 83.1094L236.91 83.6074C236.91 85.1152 237.186 86.4238 237.736 87.5332C238.068 88.1973 238.463 88.7168 238.92 89.0918L238.697 89.7539C238.178 89.4648 237.682 88.9805 237.209 88.3008C236.287 86.9727 235.826 85.3848 235.826 83.5371ZM241.146 87H240.062V80.6602H241.146V87ZM239.975 78.9785C239.975 78.8027 240.027 78.6543 240.133 78.5332C240.242 78.4121 240.402 78.3516 240.613 78.3516C240.824 78.3516 240.984 78.4121 241.094 78.5332C241.203 78.6543 241.258 78.8027 241.258 78.9785C241.258 79.1543 241.203 79.3008 241.094 79.418C240.984 79.5352 240.824 79.5938 240.613 79.5938C240.402 79.5938 240.242 79.5352 240.133 79.418C240.027 79.3008 239.975 79.1543 239.975 78.9785ZM243.912 80.6602L243.947 81.457C244.432 80.8477 245.064 80.543 245.846 80.543C247.186 80.543 247.861 81.2988 247.873 82.8105V87H246.789V82.8047C246.785 82.3477 246.68 82.0098 246.473 81.791C246.27 81.5723 245.951 81.4629 245.518 81.4629C245.166 81.4629 244.857 81.5566 244.592 81.7441C244.326 81.9316 244.119 82.1777 243.971 82.4824V87H242.887V80.6602H243.912ZM250.979 79.125V80.6602H252.162V81.498H250.979V85.4297C250.979 85.6836 251.031 85.875 251.137 86.0039C251.242 86.1289 251.422 86.1914 251.676 86.1914C251.801 86.1914 251.973 86.168 252.191 86.1211V87C251.906 87.0781 251.629 87.1172 251.359 87.1172C250.875 87.1172 250.51 86.9707 250.264 86.6777C250.018 86.3848 249.895 85.9688 249.895 85.4297V81.498H248.74V80.6602H249.895V79.125H250.979ZM255.936 83.5957C255.936 84.4668 255.82 85.3027 255.59 86.1035C255.363 86.9004 255.014 87.6367 254.541 88.3125C254.072 88.9883 253.58 89.4688 253.064 89.7539L252.836 89.0918C253.438 88.6309 253.92 87.916 254.283 86.9473C254.65 85.9746 254.838 84.8965 254.846 83.7129V83.5254C254.846 82.7051 254.76 81.9434 254.588 81.2402C254.416 80.5332 254.176 79.9004 253.867 79.3418C253.562 78.7832 253.219 78.3477 252.836 78.0352L253.064 77.373C253.58 77.6582 254.07 78.1348 254.535 78.8027C255.004 79.4707 255.354 80.207 255.584 81.0117C255.818 81.8164 255.936 82.6777 255.936 83.5957ZM267.027 84.293C266.922 85.1953 266.588 85.8926 266.025 86.3848C265.467 86.873 264.723 87.1172 263.793 87.1172C262.785 87.1172 261.977 86.7559 261.367 86.0332C260.762 85.3105 260.459 84.3438 260.459 83.1328V82.3125C260.459 81.5195 260.6 80.8223 260.881 80.2207C261.166 79.6191 261.568 79.1582 262.088 78.8379C262.607 78.5137 263.209 78.3516 263.893 78.3516C264.799 78.3516 265.525 78.6055 266.072 79.1133C266.619 79.6172 266.938 80.3164 267.027 81.2109H265.896C265.799 80.5312 265.586 80.0391 265.258 79.7344C264.934 79.4297 264.479 79.2773 263.893 79.2773C263.174 79.2773 262.609 79.543 262.199 80.0742C261.793 80.6055 261.59 81.3613 261.59 82.3418V83.168C261.59 84.0938 261.783 84.8301 262.17 85.377C262.557 85.9238 263.098 86.1973 263.793 86.1973C264.418 86.1973 264.896 86.0566 265.229 85.7754C265.564 85.4902 265.787 84.9961 265.896 84.293H267.027ZM268.111 83.7715C268.111 83.1504 268.232 82.5918 268.475 82.0957C268.721 81.5996 269.061 81.2168 269.494 80.9473C269.932 80.6777 270.43 80.543 270.988 80.543C271.852 80.543 272.549 80.8418 273.08 81.4395C273.615 82.0371 273.883 82.832 273.883 83.8242V83.9004C273.883 84.5176 273.764 85.0723 273.525 85.5645C273.291 86.0527 272.953 86.4336 272.512 86.707C272.074 86.9805 271.57 87.1172 271 87.1172C270.141 87.1172 269.443 86.8184 268.908 86.2207C268.377 85.623 268.111 84.832 268.111 83.8477V83.7715ZM269.201 83.9004C269.201 84.6035 269.363 85.168 269.688 85.5938C270.016 86.0195 270.453 86.2324 271 86.2324C271.551 86.2324 271.988 86.0176 272.312 85.5879C272.637 85.1543 272.799 84.5488 272.799 83.7715C272.799 83.0762 272.633 82.5137 272.301 82.084C271.973 81.6504 271.535 81.4336 270.988 81.4336C270.453 81.4336 270.021 81.6465 269.693 82.0723C269.365 82.498 269.201 83.1074 269.201 83.9004ZM276.268 80.6602L276.303 81.457C276.787 80.8477 277.42 80.543 278.201 80.543C279.541 80.543 280.217 81.2988 280.229 82.8105V87H279.145V82.8047C279.141 82.3477 279.035 82.0098 278.828 81.791C278.625 81.5723 278.307 81.4629 277.873 81.4629C277.521 81.4629 277.213 81.5566 276.947 81.7441C276.682 81.9316 276.475 82.1777 276.326 82.4824V87H275.242V80.6602H276.268ZM283.334 79.125V80.6602H284.518V81.498H283.334V85.4297C283.334 85.6836 283.387 85.875 283.492 86.0039C283.598 86.1289 283.777 86.1914 284.031 86.1914C284.156 86.1914 284.328 86.168 284.547 86.1211V87C284.262 87.0781 283.984 87.1172 283.715 87.1172C283.23 87.1172 282.865 86.9707 282.619 86.6777C282.373 86.3848 282.25 85.9688 282.25 85.4297V81.498H281.096V80.6602H282.25V79.125H283.334ZM288.42 87.1172C287.561 87.1172 286.861 86.8359 286.322 86.2734C285.783 85.707 285.514 84.9512 285.514 84.0059V83.8066C285.514 83.1777 285.633 82.6172 285.871 82.125C286.113 81.6289 286.449 81.2422 286.879 80.9648C287.312 80.6836 287.781 80.543 288.285 80.543C289.109 80.543 289.75 80.8145 290.207 81.3574C290.664 81.9004 290.893 82.6777 290.893 83.6895V84.1406H286.598C286.613 84.7656 286.795 85.2715 287.143 85.6582C287.494 86.041 287.939 86.2324 288.479 86.2324C288.861 86.2324 289.186 86.1543 289.451 85.998C289.717 85.8418 289.949 85.6348 290.148 85.377L290.811 85.8926C290.279 86.709 289.482 87.1172 288.42 87.1172ZM288.285 81.4336C287.848 81.4336 287.48 81.5938 287.184 81.9141C286.887 82.2305 286.703 82.6758 286.633 83.25H289.809V83.168C289.777 82.6172 289.629 82.1914 289.363 81.8906C289.098 81.5859 288.738 81.4336 288.285 81.4336ZM293.178 80.6602L293.213 81.457C293.697 80.8477 294.33 80.543 295.111 80.543C296.451 80.543 297.127 81.2988 297.139 82.8105V87H296.055V82.8047C296.051 82.3477 295.945 82.0098 295.738 81.791C295.535 81.5723 295.217 81.4629 294.783 81.4629C294.432 81.4629 294.123 81.5566 293.857 81.7441C293.592 81.9316 293.385 82.1777 293.236 82.4824V87H292.152V80.6602H293.178ZM300.244 79.125V80.6602H301.428V81.498H300.244V85.4297C300.244 85.6836 300.297 85.875 300.402 86.0039C300.508 86.1289 300.688 86.1914 300.941 86.1914C301.066 86.1914 301.238 86.168 301.457 86.1211V87C301.172 87.0781 300.895 87.1172 300.625 87.1172C300.141 87.1172 299.775 86.9707 299.529 86.6777C299.283 86.3848 299.16 85.9688 299.16 85.4297V81.498H298.006V80.6602H299.16V79.125H300.244ZM307.053 87H305.928V78.4688H307.053V87ZM309.115 87V78.4688H311.523C312.266 78.4688 312.922 78.6328 313.492 78.9609C314.062 79.2891 314.502 79.7559 314.811 80.3613C315.123 80.9668 315.281 81.6621 315.285 82.4473V82.9922C315.285 83.7969 315.129 84.502 314.816 85.1074C314.508 85.7129 314.064 86.1777 313.486 86.502C312.912 86.8262 312.242 86.9922 311.477 87H309.115ZM310.24 79.3945V86.0801H311.424C312.291 86.0801 312.965 85.8105 313.445 85.2715C313.93 84.7324 314.172 83.9648 314.172 82.9688V82.4707C314.172 81.502 313.943 80.75 313.486 80.2148C313.033 79.6758 312.389 79.4023 311.553 79.3945H310.24Z" fill="black"/>
<path d="M257.74 101.537C257.74 100.654 257.857 99.8066 258.092 98.9941C258.33 98.1816 258.684 97.4434 259.152 96.7793C259.621 96.1152 260.107 95.6465 260.611 95.373L260.834 96.0879C260.264 96.5254 259.795 97.1934 259.428 98.0918C259.064 98.9902 258.865 99.9961 258.83 101.109L258.824 101.607C258.824 103.115 259.1 104.424 259.65 105.533C259.982 106.197 260.377 106.717 260.834 107.092L260.611 107.754C260.092 107.465 259.596 106.98 259.123 106.301C258.201 104.973 257.74 103.385 257.74 101.537ZM263.061 105H261.977V98.6602H263.061V105ZM261.889 96.9785C261.889 96.8027 261.941 96.6543 262.047 96.5332C262.156 96.4121 262.316 96.3516 262.527 96.3516C262.738 96.3516 262.898 96.4121 263.008 96.5332C263.117 96.6543 263.172 96.8027 263.172 96.9785C263.172 97.1543 263.117 97.3008 263.008 97.418C262.898 97.5352 262.738 97.5938 262.527 97.5938C262.316 97.5938 262.156 97.5352 262.047 97.418C261.941 97.3008 261.889 97.1543 261.889 96.9785ZM265.826 98.6602L265.861 99.457C266.346 98.8477 266.979 98.543 267.76 98.543C269.1 98.543 269.775 99.2988 269.787 100.811V105H268.703V100.805C268.699 100.348 268.594 100.01 268.387 99.791C268.184 99.5723 267.865 99.4629 267.432 99.4629C267.08 99.4629 266.771 99.5566 266.506 99.7441C266.24 99.9316 266.033 100.178 265.885 100.482V105H264.801V98.6602H265.826ZM272.893 97.125V98.6602H274.076V99.498H272.893V103.43C272.893 103.684 272.945 103.875 273.051 104.004C273.156 104.129 273.336 104.191 273.59 104.191C273.715 104.191 273.887 104.168 274.105 104.121V105C273.82 105.078 273.543 105.117 273.273 105.117C272.789 105.117 272.424 104.971 272.178 104.678C271.932 104.385 271.809 103.969 271.809 103.43V99.498H270.654V98.6602H271.809V97.125H272.893ZM277.85 101.596C277.85 102.467 277.734 103.303 277.504 104.104C277.277 104.9 276.928 105.637 276.455 106.312C275.986 106.988 275.494 107.469 274.979 107.754L274.75 107.092C275.352 106.631 275.834 105.916 276.197 104.947C276.564 103.975 276.752 102.896 276.76 101.713V101.525C276.76 100.705 276.674 99.9434 276.502 99.2402C276.33 98.5332 276.09 97.9004 275.781 97.3418C275.477 96.7832 275.133 96.3477 274.75 96.0352L274.979 95.373C275.494 95.6582 275.984 96.1348 276.449 96.8027C276.918 97.4707 277.268 98.207 277.498 99.0117C277.732 99.8164 277.85 100.678 277.85 101.596ZM288.326 97.3945H285.584V105H284.465V97.3945H281.729V96.4688H288.326V97.3945ZM292.041 99.6328C291.877 99.6055 291.699 99.5918 291.508 99.5918C290.797 99.5918 290.314 99.8945 290.061 100.5V105H288.977V98.6602H290.031L290.049 99.3926C290.404 98.8262 290.908 98.543 291.561 98.543C291.771 98.543 291.932 98.5703 292.041 98.625V99.6328ZM294.221 105H293.137V98.6602H294.221V105ZM293.049 96.9785C293.049 96.8027 293.102 96.6543 293.207 96.5332C293.316 96.4121 293.477 96.3516 293.688 96.3516C293.898 96.3516 294.059 96.4121 294.168 96.5332C294.277 96.6543 294.332 96.8027 294.332 96.9785C294.332 97.1543 294.277 97.3008 294.168 97.418C294.059 97.5352 293.898 97.5938 293.688 97.5938C293.477 97.5938 293.316 97.5352 293.207 97.418C293.102 97.3008 293.049 97.1543 293.049 96.9785ZM301.316 101.9C301.316 102.865 301.096 103.643 300.654 104.232C300.213 104.822 299.615 105.117 298.861 105.117C298.092 105.117 297.486 104.873 297.045 104.385V107.438H295.961V98.6602H296.951L297.004 99.3633C297.445 98.8164 298.059 98.543 298.844 98.543C299.605 98.543 300.207 98.8301 300.648 99.4043C301.094 99.9785 301.316 100.777 301.316 101.801V101.9ZM300.232 101.777C300.232 101.062 300.08 100.498 299.775 100.084C299.471 99.6699 299.053 99.4629 298.521 99.4629C297.865 99.4629 297.373 99.7539 297.045 100.336V103.365C297.369 103.943 297.865 104.232 298.533 104.232C299.053 104.232 299.465 104.027 299.77 103.617C300.078 103.203 300.232 102.59 300.232 101.777ZM307.053 105H305.928V96.4688H307.053V105ZM309.115 105V96.4688H311.523C312.266 96.4688 312.922 96.6328 313.492 96.9609C314.062 97.2891 314.502 97.7559 314.811 98.3613C315.123 98.9668 315.281 99.6621 315.285 100.447V100.992C315.285 101.797 315.129 102.502 314.816 103.107C314.508 103.713 314.064 104.178 313.486 104.502C312.912 104.826 312.242 104.992 311.477 105H309.115ZM310.24 97.3945V104.08H311.424C312.291 104.08 312.965 103.811 313.445 103.271C313.93 102.732 314.172 101.965 314.172 100.969V100.471C314.172 99.502 313.943 98.75 313.486 98.2148C313.033 97.6758 312.389 97.4023 311.553 97.3945H310.24Z" fill="black"/>
<path d="M250.111 119.537C250.111 118.654 250.229 117.807 250.463 116.994C250.701 116.182 251.055 115.443 251.523 114.779C251.992 114.115 252.479 113.646 252.982 113.373L253.205 114.088C252.635 114.525 252.166 115.193 251.799 116.092C251.436 116.99 251.236 117.996 251.201 119.109L251.195 119.607C251.195 121.115 251.471 122.424 252.021 123.533C252.354 124.197 252.748 124.717 253.205 125.092L252.982 125.754C252.463 125.465 251.967 124.98 251.494 124.301C250.572 122.973 250.111 121.385 250.111 119.537ZM256.885 123.117C256.025 123.117 255.326 122.836 254.787 122.273C254.248 121.707 253.979 120.951 253.979 120.006V119.807C253.979 119.178 254.098 118.617 254.336 118.125C254.578 117.629 254.914 117.242 255.344 116.965C255.777 116.684 256.246 116.543 256.75 116.543C257.574 116.543 258.215 116.814 258.672 117.357C259.129 117.9 259.357 118.678 259.357 119.689V120.141H255.062C255.078 120.766 255.26 121.271 255.607 121.658C255.959 122.041 256.404 122.232 256.943 122.232C257.326 122.232 257.65 122.154 257.916 121.998C258.182 121.842 258.414 121.635 258.613 121.377L259.275 121.893C258.744 122.709 257.947 123.117 256.885 123.117ZM256.75 117.434C256.312 117.434 255.945 117.594 255.648 117.914C255.352 118.23 255.168 118.676 255.098 119.25H258.273V119.168C258.242 118.617 258.094 118.191 257.828 117.891C257.562 117.586 257.203 117.434 256.75 117.434ZM261.643 116.66L261.678 117.457C262.162 116.848 262.795 116.543 263.576 116.543C264.916 116.543 265.592 117.299 265.604 118.811V123H264.52V118.805C264.516 118.348 264.41 118.01 264.203 117.791C264 117.572 263.682 117.463 263.248 117.463C262.896 117.463 262.588 117.557 262.322 117.744C262.057 117.932 261.85 118.178 261.701 118.482V123H260.617V116.66H261.643ZM271.152 122.373C270.73 122.869 270.111 123.117 269.295 123.117C268.619 123.117 268.104 122.922 267.748 122.531C267.396 122.137 267.219 121.555 267.215 120.785V116.66H268.299V120.756C268.299 121.717 268.689 122.197 269.471 122.197C270.299 122.197 270.85 121.889 271.123 121.271V116.66H272.207V123H271.176L271.152 122.373ZM274.879 116.66L274.908 117.363C275.373 116.816 276 116.543 276.789 116.543C277.676 116.543 278.279 116.883 278.6 117.562C278.811 117.258 279.084 117.012 279.42 116.824C279.76 116.637 280.16 116.543 280.621 116.543C282.012 116.543 282.719 117.279 282.742 118.752V123H281.658V118.816C281.658 118.363 281.555 118.025 281.348 117.803C281.141 117.576 280.793 117.463 280.305 117.463C279.902 117.463 279.568 117.584 279.303 117.826C279.037 118.064 278.883 118.387 278.84 118.793V123H277.75V118.846C277.75 117.924 277.299 117.463 276.396 117.463C275.686 117.463 275.199 117.766 274.938 118.371V123H273.854V116.66H274.879ZM286.885 119.596C286.885 120.467 286.77 121.303 286.539 122.104C286.312 122.9 285.963 123.637 285.49 124.312C285.021 124.988 284.529 125.469 284.014 125.754L283.785 125.092C284.387 124.631 284.869 123.916 285.232 122.947C285.6 121.975 285.787 120.896 285.795 119.713V119.525C285.795 118.705 285.709 117.943 285.537 117.24C285.365 116.533 285.125 115.9 284.816 115.342C284.512 114.783 284.168 114.348 283.785 114.035L284.014 113.373C284.529 113.658 285.02 114.135 285.484 114.803C285.953 115.471 286.303 116.207 286.533 117.012C286.768 117.816 286.885 118.678 286.885 119.596ZM297.361 115.395H294.619V123H293.5V115.395H290.764V114.469H297.361V115.395ZM300.109 121.412L301.586 116.66H302.746L300.197 123.979C299.803 125.033 299.176 125.561 298.316 125.561L298.111 125.543L297.707 125.467V124.588L298 124.611C298.367 124.611 298.652 124.537 298.855 124.389C299.062 124.24 299.232 123.969 299.365 123.574L299.605 122.93L297.344 116.66H298.527L300.109 121.412ZM309.074 119.9C309.074 120.865 308.854 121.643 308.412 122.232C307.971 122.822 307.373 123.117 306.619 123.117C305.85 123.117 305.244 122.873 304.803 122.385V125.438H303.719V116.66H304.709L304.762 117.363C305.203 116.816 305.816 116.543 306.602 116.543C307.363 116.543 307.965 116.83 308.406 117.404C308.852 117.979 309.074 118.777 309.074 119.801V119.9ZM307.99 119.777C307.99 119.062 307.838 118.498 307.533 118.084C307.229 117.67 306.811 117.463 306.279 117.463C305.623 117.463 305.131 117.754 304.803 118.336V121.365C305.127 121.943 305.623 122.232 306.291 122.232C306.811 122.232 307.223 122.027 307.527 121.617C307.836 121.203 307.99 120.59 307.99 119.777ZM313.088 123.117C312.229 123.117 311.529 122.836 310.99 122.273C310.451 121.707 310.182 120.951 310.182 120.006V119.807C310.182 119.178 310.301 118.617 310.539 118.125C310.781 117.629 311.117 117.242 311.547 116.965C311.98 116.684 312.449 116.543 312.953 116.543C313.777 116.543 314.418 116.814 314.875 117.357C315.332 117.9 315.561 118.678 315.561 119.689V120.141H311.266C311.281 120.766 311.463 121.271 311.811 121.658C312.162 122.041 312.607 122.232 313.146 122.232C313.529 122.232 313.854 122.154 314.119 121.998C314.385 121.842 314.617 121.635 314.816 121.377L315.479 121.893C314.947 122.709 314.15 123.117 313.088 123.117ZM312.953 117.434C312.516 117.434 312.148 117.594 311.852 117.914C311.555 118.23 311.371 118.676 311.301 119.25H314.477V119.168C314.445 118.617 314.297 118.191 314.031 117.891C313.766 117.586 313.406 117.434 312.953 117.434Z" fill="black"/>
<path d="M244.334 137.537C244.334 136.654 244.451 135.807 244.686 134.994C244.924 134.182 245.277 133.443 245.746 132.779C246.215 132.115 246.701 131.646 247.205 131.373L247.428 132.088C246.857 132.525 246.389 133.193 246.021 134.092C245.658 134.99 245.459 135.996 245.424 137.109L245.418 137.607C245.418 139.115 245.693 140.424 246.244 141.533C246.576 142.197 246.971 142.717 247.428 143.092L247.205 143.754C246.686 143.465 246.189 142.98 245.717 142.301C244.795 140.973 244.334 139.385 244.334 137.537ZM251.16 137.197C250.195 136.92 249.492 136.58 249.051 136.178C248.613 135.771 248.395 135.271 248.395 134.678C248.395 134.006 248.662 133.451 249.197 133.014C249.736 132.572 250.436 132.352 251.295 132.352C251.881 132.352 252.402 132.465 252.859 132.691C253.32 132.918 253.676 133.23 253.926 133.629C254.18 134.027 254.307 134.463 254.307 134.936H253.176C253.176 134.42 253.012 134.016 252.684 133.723C252.355 133.426 251.893 133.277 251.295 133.277C250.74 133.277 250.307 133.4 249.994 133.646C249.686 133.889 249.531 134.227 249.531 134.66C249.531 135.008 249.678 135.303 249.971 135.545C250.268 135.783 250.77 136.002 251.477 136.201C252.188 136.4 252.742 136.621 253.141 136.863C253.543 137.102 253.84 137.381 254.031 137.701C254.227 138.021 254.324 138.398 254.324 138.832C254.324 139.523 254.055 140.078 253.516 140.496C252.977 140.91 252.256 141.117 251.354 141.117C250.768 141.117 250.221 141.006 249.713 140.783C249.205 140.557 248.812 140.248 248.535 139.857C248.262 139.467 248.125 139.023 248.125 138.527H249.256C249.256 139.043 249.445 139.451 249.824 139.752C250.207 140.049 250.717 140.197 251.354 140.197C251.947 140.197 252.402 140.076 252.719 139.834C253.035 139.592 253.193 139.262 253.193 138.844C253.193 138.426 253.047 138.104 252.754 137.877C252.461 137.646 251.93 137.42 251.16 137.197ZM257.072 133.125V134.66H258.256V135.498H257.072V139.43C257.072 139.684 257.125 139.875 257.23 140.004C257.336 140.129 257.516 140.191 257.77 140.191C257.895 140.191 258.066 140.168 258.285 140.121V141C258 141.078 257.723 141.117 257.453 141.117C256.969 141.117 256.604 140.971 256.357 140.678C256.111 140.385 255.988 139.969 255.988 139.43V135.498H254.834V134.66H255.988V133.125H257.072ZM262.592 135.633C262.428 135.605 262.25 135.592 262.059 135.592C261.348 135.592 260.865 135.895 260.611 136.5V141H259.527V134.66H260.582L260.6 135.393C260.955 134.826 261.459 134.543 262.111 134.543C262.322 134.543 262.482 134.57 262.592 134.625V135.633ZM264.771 141H263.688V134.66H264.771V141ZM263.6 132.979C263.6 132.803 263.652 132.654 263.758 132.533C263.867 132.412 264.027 132.352 264.238 132.352C264.449 132.352 264.609 132.412 264.719 132.533C264.828 132.654 264.883 132.803 264.883 132.979C264.883 133.154 264.828 133.301 264.719 133.418C264.609 133.535 264.449 133.594 264.238 133.594C264.027 133.594 263.867 133.535 263.758 133.418C263.652 133.301 263.6 133.154 263.6 132.979ZM267.537 134.66L267.572 135.457C268.057 134.848 268.689 134.543 269.471 134.543C270.811 134.543 271.486 135.299 271.498 136.811V141H270.414V136.805C270.41 136.348 270.305 136.01 270.098 135.791C269.895 135.572 269.576 135.463 269.143 135.463C268.791 135.463 268.482 135.557 268.217 135.744C267.951 135.932 267.744 136.178 267.596 136.482V141H266.512V134.66H267.537ZM272.875 137.777C272.875 136.789 273.104 136.004 273.561 135.422C274.018 134.836 274.623 134.543 275.377 134.543C276.15 134.543 276.754 134.816 277.188 135.363L277.24 134.66H278.23V140.848C278.23 141.668 277.986 142.314 277.498 142.787C277.014 143.26 276.361 143.496 275.541 143.496C275.084 143.496 274.637 143.398 274.199 143.203C273.762 143.008 273.428 142.74 273.197 142.4L273.76 141.75C274.225 142.324 274.793 142.611 275.465 142.611C275.992 142.611 276.402 142.463 276.695 142.166C276.992 141.869 277.141 141.451 277.141 140.912V140.367C276.707 140.867 276.115 141.117 275.365 141.117C274.623 141.117 274.021 140.818 273.561 140.221C273.104 139.623 272.875 138.809 272.875 137.777ZM273.965 137.9C273.965 138.615 274.111 139.178 274.404 139.588C274.697 139.994 275.107 140.197 275.635 140.197C276.318 140.197 276.82 139.887 277.141 139.266V136.371C276.809 135.766 276.311 135.463 275.646 135.463C275.119 135.463 274.707 135.668 274.41 136.078C274.113 136.488 273.965 137.096 273.965 137.9ZM282.373 137.596C282.373 138.467 282.258 139.303 282.027 140.104C281.801 140.9 281.451 141.637 280.979 142.312C280.51 142.988 280.018 143.469 279.502 143.754L279.273 143.092C279.875 142.631 280.357 141.916 280.721 140.947C281.088 139.975 281.275 138.896 281.283 137.713V137.525C281.283 136.705 281.197 135.943 281.025 135.24C280.854 134.533 280.613 133.9 280.305 133.342C280 132.783 279.656 132.348 279.273 132.035L279.502 131.373C280.018 131.658 280.508 132.135 280.973 132.803C281.441 133.471 281.791 134.207 282.021 135.012C282.256 135.816 282.373 136.678 282.373 137.596ZM290.014 139.506L292.451 132.469H293.682L290.518 141H289.521L286.363 132.469H287.588L290.014 139.506ZM298.305 141C298.242 140.875 298.191 140.652 298.152 140.332C297.648 140.855 297.047 141.117 296.348 141.117C295.723 141.117 295.209 140.941 294.807 140.59C294.408 140.234 294.209 139.785 294.209 139.242C294.209 138.582 294.459 138.07 294.959 137.707C295.463 137.34 296.17 137.156 297.08 137.156H298.135V136.658C298.135 136.279 298.021 135.979 297.795 135.756C297.568 135.529 297.234 135.416 296.793 135.416C296.406 135.416 296.082 135.514 295.82 135.709C295.559 135.904 295.428 136.141 295.428 136.418H294.338C294.338 136.102 294.449 135.797 294.672 135.504C294.898 135.207 295.203 134.973 295.586 134.801C295.973 134.629 296.396 134.543 296.857 134.543C297.588 134.543 298.16 134.727 298.574 135.094C298.988 135.457 299.203 135.959 299.219 136.6V139.518C299.219 140.1 299.293 140.562 299.441 140.906V141H298.305ZM296.506 140.174C296.846 140.174 297.168 140.086 297.473 139.91C297.777 139.734 297.998 139.506 298.135 139.225V137.924H297.285C295.957 137.924 295.293 138.312 295.293 139.09C295.293 139.43 295.406 139.695 295.633 139.887C295.859 140.078 296.15 140.174 296.506 140.174ZM302.096 141H301.012V132H302.096V141ZM307.75 140.373C307.328 140.869 306.709 141.117 305.893 141.117C305.217 141.117 304.701 140.922 304.346 140.531C303.994 140.137 303.816 139.555 303.812 138.785V134.66H304.896V138.756C304.896 139.717 305.287 140.197 306.068 140.197C306.896 140.197 307.447 139.889 307.721 139.271V134.66H308.805V141H307.773L307.75 140.373ZM313.088 141.117C312.229 141.117 311.529 140.836 310.99 140.273C310.451 139.707 310.182 138.951 310.182 138.006V137.807C310.182 137.178 310.301 136.617 310.539 136.125C310.781 135.629 311.117 135.242 311.547 134.965C311.98 134.684 312.449 134.543 312.953 134.543C313.777 134.543 314.418 134.814 314.875 135.357C315.332 135.9 315.561 136.678 315.561 137.689V138.141H311.266C311.281 138.766 311.463 139.271 311.811 139.658C312.162 140.041 312.607 140.232 313.146 140.232C313.529 140.232 313.854 140.154 314.119 139.998C314.385 139.842 314.617 139.635 314.816 139.377L315.479 139.893C314.947 140.709 314.15 141.117 313.088 141.117ZM312.953 135.434C312.516 135.434 312.148 135.594 311.852 135.914C311.555 136.23 311.371 136.676 311.301 137.25H314.477V137.168C314.445 136.617 314.297 136.191 314.031 135.891C313.766 135.586 313.406 135.434 312.953 135.434Z" fill="black"/>
<path d="M248.318 155.537C248.318 154.654 248.436 153.807 248.67 152.994C248.908 152.182 249.262 151.443 249.73 150.779C250.199 150.115 250.686 149.646 251.189 149.373L251.412 150.088C250.842 150.525 250.373 151.193 250.006 152.092C249.643 152.99 249.443 153.996 249.408 155.109L249.402 155.607C249.402 157.115 249.678 158.424 250.229 159.533C250.561 160.197 250.955 160.717 251.412 161.092L251.189 161.754C250.67 161.465 250.174 160.98 249.701 160.301C248.779 158.973 248.318 157.385 248.318 155.537ZM253.639 159H252.555V152.66H253.639V159ZM252.467 150.979C252.467 150.803 252.52 150.654 252.625 150.533C252.734 150.412 252.895 150.352 253.105 150.352C253.316 150.352 253.477 150.412 253.586 150.533C253.695 150.654 253.75 150.803 253.75 150.979C253.75 151.154 253.695 151.301 253.586 151.418C253.477 151.535 253.316 151.594 253.105 151.594C252.895 151.594 252.734 151.535 252.625 151.418C252.52 151.301 252.467 151.154 252.467 150.979ZM256.404 152.66L256.439 153.457C256.924 152.848 257.557 152.543 258.338 152.543C259.678 152.543 260.354 153.299 260.365 154.811V159H259.281V154.805C259.277 154.348 259.172 154.01 258.965 153.791C258.762 153.572 258.443 153.463 258.01 153.463C257.658 153.463 257.35 153.557 257.084 153.744C256.818 153.932 256.611 154.178 256.463 154.482V159H255.379V152.66H256.404ZM263.471 151.125V152.66H264.654V153.498H263.471V157.43C263.471 157.684 263.523 157.875 263.629 158.004C263.734 158.129 263.914 158.191 264.168 158.191C264.293 158.191 264.465 158.168 264.684 158.121V159C264.398 159.078 264.121 159.117 263.852 159.117C263.367 159.117 263.002 158.971 262.756 158.678C262.51 158.385 262.387 157.969 262.387 157.43V153.498H261.232V152.66H262.387V151.125H263.471ZM268.428 155.596C268.428 156.467 268.312 157.303 268.082 158.104C267.855 158.9 267.506 159.637 267.033 160.312C266.564 160.988 266.072 161.469 265.557 161.754L265.328 161.092C265.93 160.631 266.412 159.916 266.775 158.947C267.143 157.975 267.33 156.896 267.338 155.713V155.525C267.338 154.705 267.252 153.943 267.08 153.24C266.908 152.533 266.668 151.9 266.359 151.342C266.055 150.783 265.711 150.348 265.328 150.035L265.557 149.373C266.072 149.658 266.562 150.135 267.027 150.803C267.496 151.471 267.846 152.207 268.076 153.012C268.311 153.816 268.428 154.678 268.428 155.596ZM274.369 155.66V159H273.244V150.469H276.391C277.324 150.469 278.055 150.707 278.582 151.184C279.113 151.66 279.379 152.291 279.379 153.076C279.379 153.904 279.119 154.543 278.6 154.992C278.084 155.438 277.344 155.66 276.379 155.66H274.369ZM274.369 154.74H276.391C276.992 154.74 277.453 154.6 277.773 154.318C278.094 154.033 278.254 153.623 278.254 153.088C278.254 152.58 278.094 152.174 277.773 151.869C277.453 151.564 277.014 151.406 276.455 151.395H274.369V154.74ZM280.275 155.771C280.275 155.15 280.396 154.592 280.639 154.096C280.885 153.6 281.225 153.217 281.658 152.947C282.096 152.678 282.594 152.543 283.152 152.543C284.016 152.543 284.713 152.842 285.244 153.439C285.779 154.037 286.047 154.832 286.047 155.824V155.9C286.047 156.518 285.928 157.072 285.689 157.564C285.455 158.053 285.117 158.434 284.676 158.707C284.238 158.98 283.734 159.117 283.164 159.117C282.305 159.117 281.607 158.818 281.072 158.221C280.541 157.623 280.275 156.832 280.275 155.848V155.771ZM281.365 155.9C281.365 156.604 281.527 157.168 281.852 157.594C282.18 158.02 282.617 158.232 283.164 158.232C283.715 158.232 284.152 158.018 284.477 157.588C284.801 157.154 284.963 156.549 284.963 155.771C284.963 155.076 284.797 154.514 284.465 154.084C284.137 153.65 283.699 153.434 283.152 153.434C282.617 153.434 282.186 153.646 281.857 154.072C281.529 154.498 281.365 155.107 281.365 155.9ZM291.098 157.318C291.098 157.025 290.986 156.799 290.764 156.639C290.545 156.475 290.16 156.334 289.609 156.217C289.062 156.1 288.627 155.959 288.303 155.795C287.982 155.631 287.744 155.436 287.588 155.209C287.436 154.982 287.359 154.713 287.359 154.4C287.359 153.881 287.578 153.441 288.016 153.082C288.457 152.723 289.02 152.543 289.703 152.543C290.422 152.543 291.004 152.729 291.449 153.1C291.898 153.471 292.123 153.945 292.123 154.523H291.033C291.033 154.227 290.906 153.971 290.652 153.756C290.402 153.541 290.086 153.434 289.703 153.434C289.309 153.434 289 153.52 288.777 153.691C288.555 153.863 288.443 154.088 288.443 154.365C288.443 154.627 288.547 154.824 288.754 154.957C288.961 155.09 289.334 155.217 289.873 155.338C290.416 155.459 290.855 155.604 291.191 155.771C291.527 155.939 291.775 156.143 291.936 156.381C292.1 156.615 292.182 156.902 292.182 157.242C292.182 157.809 291.955 158.264 291.502 158.607C291.049 158.947 290.461 159.117 289.738 159.117C289.23 159.117 288.781 159.027 288.391 158.848C288 158.668 287.693 158.418 287.471 158.098C287.252 157.773 287.143 157.424 287.143 157.049H288.227C288.246 157.412 288.391 157.701 288.66 157.916C288.934 158.127 289.293 158.232 289.738 158.232C290.148 158.232 290.477 158.15 290.723 157.986C290.973 157.818 291.098 157.596 291.098 157.318ZM294.771 159H293.688V152.66H294.771V159ZM293.6 150.979C293.6 150.803 293.652 150.654 293.758 150.533C293.867 150.412 294.027 150.352 294.238 150.352C294.449 150.352 294.609 150.412 294.719 150.533C294.828 150.654 294.883 150.803 294.883 150.979C294.883 151.154 294.828 151.301 294.719 151.418C294.609 151.535 294.449 151.594 294.238 151.594C294.027 151.594 293.867 151.535 293.758 151.418C293.652 151.301 293.6 151.154 293.6 150.979ZM297.982 151.125V152.66H299.166V153.498H297.982V157.43C297.982 157.684 298.035 157.875 298.141 158.004C298.246 158.129 298.426 158.191 298.68 158.191C298.805 158.191 298.977 158.168 299.195 158.121V159C298.91 159.078 298.633 159.117 298.363 159.117C297.879 159.117 297.514 158.971 297.268 158.678C297.021 158.385 296.898 157.969 296.898 157.43V153.498H295.744V152.66H296.898V151.125H297.982ZM301.615 159H300.531V152.66H301.615V159ZM300.443 150.979C300.443 150.803 300.496 150.654 300.602 150.533C300.711 150.412 300.871 150.352 301.082 150.352C301.293 150.352 301.453 150.412 301.562 150.533C301.672 150.654 301.727 150.803 301.727 150.979C301.727 151.154 301.672 151.301 301.562 151.418C301.453 151.535 301.293 151.594 301.082 151.594C300.871 151.594 300.711 151.535 300.602 151.418C300.496 151.301 300.443 151.154 300.443 150.979ZM303.068 155.771C303.068 155.15 303.189 154.592 303.432 154.096C303.678 153.6 304.018 153.217 304.451 152.947C304.889 152.678 305.387 152.543 305.945 152.543C306.809 152.543 307.506 152.842 308.037 153.439C308.572 154.037 308.84 154.832 308.84 155.824V155.9C308.84 156.518 308.721 157.072 308.482 157.564C308.248 158.053 307.91 158.434 307.469 158.707C307.031 158.98 306.527 159.117 305.957 159.117C305.098 159.117 304.4 158.818 303.865 158.221C303.334 157.623 303.068 156.832 303.068 155.848V155.771ZM304.158 155.9C304.158 156.604 304.32 157.168 304.645 157.594C304.973 158.02 305.41 158.232 305.957 158.232C306.508 158.232 306.945 158.018 307.27 157.588C307.594 157.154 307.756 156.549 307.756 155.771C307.756 155.076 307.59 154.514 307.258 154.084C306.93 153.65 306.492 153.434 305.945 153.434C305.41 153.434 304.979 153.646 304.65 154.072C304.322 154.498 304.158 155.107 304.158 155.9ZM311.225 152.66L311.26 153.457C311.744 152.848 312.377 152.543 313.158 152.543C314.498 152.543 315.174 153.299 315.186 154.811V159H314.102V154.805C314.098 154.348 313.992 154.01 313.785 153.791C313.582 153.572 313.264 153.463 312.83 153.463C312.479 153.463 312.17 153.557 311.904 153.744C311.639 153.932 311.432 154.178 311.283 154.482V159H310.199V152.66H311.225Z" fill="black"/>
</g>
<g filter="url(#filter2_d)">
<rect width="120" height="84" fill="#E9E9E9" transform="translate(36 194)"/>
<path d="M57.7695 208.789H52.2852V224H50.0469V208.789H44.5742V206.938H57.7695V208.789ZM65.1992 213.266C64.8711 213.211 64.5156 213.184 64.1328 213.184C62.7109 213.184 61.7461 213.789 61.2383 215V224H59.0703V211.32H61.1797L61.2148 212.785C61.9258 211.652 62.9336 211.086 64.2383 211.086C64.6602 211.086 64.9805 211.141 65.1992 211.25V213.266ZM69.5586 224H67.3906V211.32H69.5586V224ZM67.2148 207.957C67.2148 207.605 67.3203 207.309 67.5312 207.066C67.75 206.824 68.0703 206.703 68.4922 206.703C68.9141 206.703 69.2344 206.824 69.4531 207.066C69.6719 207.309 69.7812 207.605 69.7812 207.957C69.7812 208.309 69.6719 208.602 69.4531 208.836C69.2344 209.07 68.9141 209.188 68.4922 209.188C68.0703 209.188 67.75 209.07 67.5312 208.836C67.3203 208.602 67.2148 208.309 67.2148 207.957ZM83.75 217.801C83.75 219.73 83.3086 221.285 82.4258 222.465C81.543 223.645 80.3477 224.234 78.8398 224.234C77.3008 224.234 76.0898 223.746 75.207 222.77V228.875H73.0391V211.32H75.0195L75.125 212.727C76.0078 211.633 77.2344 211.086 78.8047 211.086C80.3281 211.086 81.5312 211.66 82.4141 212.809C83.3047 213.957 83.75 215.555 83.75 217.602V217.801ZM81.582 217.555C81.582 216.125 81.2773 214.996 80.668 214.168C80.0586 213.34 79.2227 212.926 78.1602 212.926C76.8477 212.926 75.8633 213.508 75.207 214.672V220.73C75.8555 221.887 76.8477 222.465 78.1836 222.465C79.2227 222.465 80.0469 222.055 80.6562 221.234C81.2734 220.406 81.582 219.18 81.582 217.555ZM93.8984 220.637C93.8984 220.051 93.6758 219.598 93.2305 219.277C92.793 218.949 92.0234 218.668 90.9219 218.434C89.8281 218.199 88.957 217.918 88.3086 217.59C87.668 217.262 87.1914 216.871 86.8789 216.418C86.5742 215.965 86.4219 215.426 86.4219 214.801C86.4219 213.762 86.8594 212.883 87.7344 212.164C88.6172 211.445 89.7422 211.086 91.1094 211.086C92.5469 211.086 93.7109 211.457 94.6016 212.199C95.5 212.941 95.9492 213.891 95.9492 215.047H93.7695C93.7695 214.453 93.5156 213.941 93.0078 213.512C92.5078 213.082 91.875 212.867 91.1094 212.867C90.3203 212.867 89.7031 213.039 89.2578 213.383C88.8125 213.727 88.5898 214.176 88.5898 214.73C88.5898 215.254 88.7969 215.648 89.2109 215.914C89.625 216.18 90.3711 216.434 91.4492 216.676C92.5352 216.918 93.4141 217.207 94.0859 217.543C94.7578 217.879 95.2539 218.285 95.5742 218.762C95.9023 219.23 96.0664 219.805 96.0664 220.484C96.0664 221.617 95.6133 222.527 94.707 223.215C93.8008 223.895 92.625 224.234 91.1797 224.234C90.1641 224.234 89.2656 224.055 88.4844 223.695C87.7031 223.336 87.0898 222.836 86.6445 222.195C86.207 221.547 85.9883 220.848 85.9883 220.098H88.1562C88.1953 220.824 88.4844 221.402 89.0234 221.832C89.5703 222.254 90.2891 222.465 91.1797 222.465C92 222.465 92.6562 222.301 93.1484 221.973C93.6484 221.637 93.8984 221.191 93.8984 220.637Z" fill="black"/>
<path d="M89.5059 241.537C89.5059 240.654 89.623 239.807 89.8574 238.994C90.0957 238.182 90.4492 237.443 90.918 236.779C91.3867 236.115 91.873 235.646 92.377 235.373L92.5996 236.088C92.0293 236.525 91.5605 237.193 91.1934 238.092C90.8301 238.99 90.6309 239.996 90.5957 241.109L90.5898 241.607C90.5898 243.115 90.8652 244.424 91.416 245.533C91.748 246.197 92.1426 246.717 92.5996 247.092L92.377 247.754C91.8574 247.465 91.3613 246.98 90.8887 246.301C89.9668 244.973 89.5059 243.385 89.5059 241.537ZM94.8262 245H93.7422V238.66H94.8262V245ZM93.6543 236.979C93.6543 236.803 93.707 236.654 93.8125 236.533C93.9219 236.412 94.082 236.352 94.293 236.352C94.5039 236.352 94.6641 236.412 94.7734 236.533C94.8828 236.654 94.9375 236.803 94.9375 236.979C94.9375 237.154 94.8828 237.301 94.7734 237.418C94.6641 237.535 94.5039 237.594 94.293 237.594C94.082 237.594 93.9219 237.535 93.8125 237.418C93.707 237.301 93.6543 237.154 93.6543 236.979ZM97.5918 238.66L97.627 239.457C98.1113 238.848 98.7441 238.543 99.5254 238.543C100.865 238.543 101.541 239.299 101.553 240.811V245H100.469V240.805C100.465 240.348 100.359 240.01 100.152 239.791C99.9492 239.572 99.6309 239.463 99.1973 239.463C98.8457 239.463 98.5371 239.557 98.2715 239.744C98.0059 239.932 97.7988 240.178 97.6504 240.482V245H96.5664V238.66H97.5918ZM104.658 237.125V238.66H105.842V239.498H104.658V243.43C104.658 243.684 104.711 243.875 104.816 244.004C104.922 244.129 105.102 244.191 105.355 244.191C105.48 244.191 105.652 244.168 105.871 244.121V245C105.586 245.078 105.309 245.117 105.039 245.117C104.555 245.117 104.189 244.971 103.943 244.678C103.697 244.385 103.574 243.969 103.574 243.43V239.498H102.42V238.66H103.574V237.125H104.658ZM109.615 241.596C109.615 242.467 109.5 243.303 109.27 244.104C109.043 244.9 108.693 245.637 108.221 246.312C107.752 246.988 107.26 247.469 106.744 247.754L106.516 247.092C107.117 246.631 107.6 245.916 107.963 244.947C108.33 243.975 108.518 242.896 108.525 241.713V241.525C108.525 240.705 108.439 239.943 108.268 239.24C108.096 238.533 107.855 237.9 107.547 237.342C107.242 236.783 106.898 236.348 106.516 236.035L106.744 235.373C107.26 235.658 107.75 236.135 108.215 236.803C108.684 237.471 109.033 238.207 109.264 239.012C109.498 239.816 109.615 240.678 109.615 241.596ZM120.326 237.395H117.584V245H116.465V237.395H113.729V236.469H120.326V237.395ZM124.041 239.633C123.877 239.605 123.699 239.592 123.508 239.592C122.797 239.592 122.314 239.895 122.061 240.5V245H120.977V238.66H122.031L122.049 239.393C122.404 238.826 122.908 238.543 123.561 238.543C123.771 238.543 123.932 238.57 124.041 238.625V239.633ZM126.221 245H125.137V238.66H126.221V245ZM125.049 236.979C125.049 236.803 125.102 236.654 125.207 236.533C125.316 236.412 125.477 236.352 125.688 236.352C125.898 236.352 126.059 236.412 126.168 236.533C126.277 236.654 126.332 236.803 126.332 236.979C126.332 237.154 126.277 237.301 126.168 237.418C126.059 237.535 125.898 237.594 125.688 237.594C125.477 237.594 125.316 237.535 125.207 237.418C125.102 237.301 125.049 237.154 125.049 236.979ZM133.316 241.9C133.316 242.865 133.096 243.643 132.654 244.232C132.213 244.822 131.615 245.117 130.861 245.117C130.092 245.117 129.486 244.873 129.045 244.385V247.438H127.961V238.66H128.951L129.004 239.363C129.445 238.816 130.059 238.543 130.844 238.543C131.605 238.543 132.207 238.83 132.648 239.404C133.094 239.979 133.316 240.777 133.316 241.801V241.9ZM132.232 241.777C132.232 241.062 132.08 240.498 131.775 240.084C131.471 239.67 131.053 239.463 130.521 239.463C129.865 239.463 129.373 239.754 129.045 240.336V243.365C129.369 243.943 129.865 244.232 130.533 244.232C131.053 244.232 131.465 244.027 131.77 243.617C132.078 243.203 132.232 242.59 132.232 241.777ZM139.053 245H137.928V236.469H139.053V245ZM141.115 245V236.469H143.523C144.266 236.469 144.922 236.633 145.492 236.961C146.062 237.289 146.502 237.756 146.811 238.361C147.123 238.967 147.281 239.662 147.285 240.447V240.992C147.285 241.797 147.129 242.502 146.816 243.107C146.508 243.713 146.064 244.178 145.486 244.502C144.912 244.826 144.242 244.992 143.477 245H141.115ZM142.24 237.395V244.08H143.424C144.291 244.08 144.965 243.811 145.445 243.271C145.93 242.732 146.172 241.965 146.172 240.969V240.471C146.172 239.502 145.943 238.75 145.486 238.215C145.033 237.676 144.389 237.402 143.553 237.395H142.24Z" fill="black"/>
<path d="M52.334 259.537C52.334 258.654 52.4512 257.807 52.6855 256.994C52.9238 256.182 53.2773 255.443 53.7461 254.779C54.2148 254.115 54.7012 253.646 55.2051 253.373L55.4277 254.088C54.8574 254.525 54.3887 255.193 54.0215 256.092C53.6582 256.99 53.459 257.996 53.4238 259.109L53.418 259.607C53.418 261.115 53.6934 262.424 54.2441 263.533C54.5762 264.197 54.9707 264.717 55.4277 265.092L55.2051 265.754C54.6855 265.465 54.1895 264.98 53.7168 264.301C52.7949 262.973 52.334 261.385 52.334 259.537ZM57.7773 262.08H61.8203V263H56.6465V254.469H57.7773V262.08ZM64.1113 263H63.0273V256.66H64.1113V263ZM62.9395 254.979C62.9395 254.803 62.9922 254.654 63.0977 254.533C63.207 254.412 63.3672 254.352 63.5781 254.352C63.7891 254.352 63.9492 254.412 64.0586 254.533C64.168 254.654 64.2227 254.803 64.2227 254.979C64.2227 255.154 64.168 255.301 64.0586 255.418C63.9492 255.535 63.7891 255.594 63.5781 255.594C63.3672 255.594 63.207 255.535 63.0977 255.418C62.9922 255.301 62.9395 255.154 62.9395 254.979ZM69.543 261.318C69.543 261.025 69.4316 260.799 69.209 260.639C68.9902 260.475 68.6055 260.334 68.0547 260.217C67.5078 260.1 67.0723 259.959 66.748 259.795C66.4277 259.631 66.1895 259.436 66.0332 259.209C65.8809 258.982 65.8047 258.713 65.8047 258.4C65.8047 257.881 66.0234 257.441 66.4609 257.082C66.9023 256.723 67.4648 256.543 68.1484 256.543C68.8672 256.543 69.4492 256.729 69.8945 257.1C70.3438 257.471 70.5684 257.945 70.5684 258.523H69.4785C69.4785 258.227 69.3516 257.971 69.0977 257.756C68.8477 257.541 68.5312 257.434 68.1484 257.434C67.7539 257.434 67.4453 257.52 67.2227 257.691C67 257.863 66.8887 258.088 66.8887 258.365C66.8887 258.627 66.9922 258.824 67.1992 258.957C67.4062 259.09 67.7793 259.217 68.3184 259.338C68.8613 259.459 69.3008 259.604 69.6367 259.771C69.9727 259.939 70.2207 260.143 70.3809 260.381C70.5449 260.615 70.627 260.902 70.627 261.242C70.627 261.809 70.4004 262.264 69.9473 262.607C69.4941 262.947 68.9062 263.117 68.1836 263.117C67.6758 263.117 67.2266 263.027 66.8359 262.848C66.4453 262.668 66.1387 262.418 65.916 262.098C65.6973 261.773 65.5879 261.424 65.5879 261.049H66.6719C66.6914 261.412 66.8359 261.701 67.1055 261.916C67.3789 262.127 67.7383 262.232 68.1836 262.232C68.5938 262.232 68.9219 262.15 69.168 261.986C69.418 261.818 69.543 261.596 69.543 261.318ZM73.5098 255.125V256.66H74.6934V257.498H73.5098V261.43C73.5098 261.684 73.5625 261.875 73.668 262.004C73.7734 262.129 73.9531 262.191 74.207 262.191C74.332 262.191 74.5039 262.168 74.7227 262.121V263C74.4375 263.078 74.1602 263.117 73.8906 263.117C73.4062 263.117 73.041 262.971 72.7949 262.678C72.5488 262.385 72.4258 261.969 72.4258 261.43V257.498H71.2715V256.66H72.4258V255.125H73.5098ZM76.6914 259.227L80.3594 260.709V261.857L75.5664 259.637V258.781L80.3594 256.566V257.715L76.6914 259.227ZM83.248 263H82.1641V256.66H83.248V263ZM82.0762 254.979C82.0762 254.803 82.1289 254.654 82.2344 254.533C82.3438 254.412 82.5039 254.352 82.7148 254.352C82.9258 254.352 83.0859 254.412 83.1953 254.533C83.3047 254.654 83.3594 254.803 83.3594 254.979C83.3594 255.154 83.3047 255.301 83.1953 255.418C83.0859 255.535 82.9258 255.594 82.7148 255.594C82.5039 255.594 82.3438 255.535 82.2344 255.418C82.1289 255.301 82.0762 255.154 82.0762 254.979ZM86.0137 256.66L86.0488 257.457C86.5332 256.848 87.166 256.543 87.9473 256.543C89.2871 256.543 89.9629 257.299 89.9746 258.811V263H88.8906V258.805C88.8867 258.348 88.7812 258.01 88.5742 257.791C88.3711 257.572 88.0527 257.463 87.6191 257.463C87.2676 257.463 86.959 257.557 86.6934 257.744C86.4277 257.932 86.2207 258.178 86.0723 258.482V263H84.9883V256.66H86.0137ZM93.0801 255.125V256.66H94.2637V257.498H93.0801V261.43C93.0801 261.684 93.1328 261.875 93.2383 262.004C93.3438 262.129 93.5234 262.191 93.7773 262.191C93.9023 262.191 94.0742 262.168 94.293 262.121V263C94.0078 263.078 93.7305 263.117 93.4609 263.117C92.9766 263.117 92.6113 262.971 92.3652 262.678C92.1191 262.385 91.9961 261.969 91.9961 261.43V257.498H90.8418V256.66H91.9961V255.125H93.0801ZM99.373 259.191L95.5 257.674V256.561L100.504 258.775V259.631L95.5 261.852V260.727L99.373 259.191ZM104.307 259.596C104.307 260.467 104.191 261.303 103.961 262.104C103.734 262.9 103.385 263.637 102.912 264.312C102.443 264.988 101.951 265.469 101.436 265.754L101.207 265.092C101.809 264.631 102.291 263.916 102.654 262.947C103.021 261.975 103.209 260.896 103.217 259.713V259.525C103.217 258.705 103.131 257.943 102.959 257.24C102.787 256.533 102.547 255.9 102.238 255.342C101.934 254.783 101.59 254.348 101.207 254.035L101.436 253.373C101.951 253.658 102.441 254.135 102.906 254.803C103.375 255.471 103.725 256.207 103.955 257.012C104.189 257.816 104.307 258.678 104.307 259.596ZM110.254 262.08H114.297V263H109.123V254.469H110.254V262.08ZM118.041 263.117C117.182 263.117 116.482 262.836 115.943 262.273C115.404 261.707 115.135 260.951 115.135 260.006V259.807C115.135 259.178 115.254 258.617 115.492 258.125C115.734 257.629 116.07 257.242 116.5 256.965C116.934 256.684 117.402 256.543 117.906 256.543C118.73 256.543 119.371 256.814 119.828 257.357C120.285 257.9 120.514 258.678 120.514 259.689V260.141H116.219C116.234 260.766 116.416 261.271 116.764 261.658C117.115 262.041 117.561 262.232 118.1 262.232C118.482 262.232 118.807 262.154 119.072 261.998C119.338 261.842 119.57 261.635 119.77 261.377L120.432 261.893C119.9 262.709 119.104 263.117 118.041 263.117ZM117.906 257.434C117.469 257.434 117.102 257.594 116.805 257.914C116.508 258.23 116.324 258.676 116.254 259.25H119.43V259.168C119.398 258.617 119.25 258.191 118.984 257.891C118.719 257.586 118.359 257.434 117.906 257.434ZM121.516 259.777C121.516 258.789 121.744 258.004 122.201 257.422C122.658 256.836 123.264 256.543 124.018 256.543C124.791 256.543 125.395 256.816 125.828 257.363L125.881 256.66H126.871V262.848C126.871 263.668 126.627 264.314 126.139 264.787C125.654 265.26 125.002 265.496 124.182 265.496C123.725 265.496 123.277 265.398 122.84 265.203C122.402 265.008 122.068 264.74 121.838 264.4L122.4 263.75C122.865 264.324 123.434 264.611 124.105 264.611C124.633 264.611 125.043 264.463 125.336 264.166C125.633 263.869 125.781 263.451 125.781 262.912V262.367C125.348 262.867 124.756 263.117 124.006 263.117C123.264 263.117 122.662 262.818 122.201 262.221C121.744 261.623 121.516 260.809 121.516 259.777ZM122.605 259.9C122.605 260.615 122.752 261.178 123.045 261.588C123.338 261.994 123.748 262.197 124.275 262.197C124.959 262.197 125.461 261.887 125.781 261.266V258.371C125.449 257.766 124.951 257.463 124.287 257.463C123.76 257.463 123.348 257.668 123.051 258.078C122.754 258.488 122.605 259.096 122.605 259.9ZM132.865 263H131.74V254.469H132.865V263ZM134.928 263V254.469H137.336C138.078 254.469 138.734 254.633 139.305 254.961C139.875 255.289 140.314 255.756 140.623 256.361C140.936 256.967 141.094 257.662 141.098 258.447V258.992C141.098 259.797 140.941 260.502 140.629 261.107C140.32 261.713 139.877 262.178 139.299 262.502C138.725 262.826 138.055 262.992 137.289 263H134.928ZM136.053 255.395V262.08H137.236C138.104 262.08 138.777 261.811 139.258 261.271C139.742 260.732 139.984 259.965 139.984 258.969V258.471C139.984 257.502 139.756 256.75 139.299 256.215C138.846 255.676 138.201 255.402 137.365 255.395H136.053ZM146.324 261.318C146.324 261.025 146.213 260.799 145.99 260.639C145.771 260.475 145.387 260.334 144.836 260.217C144.289 260.1 143.854 259.959 143.529 259.795C143.209 259.631 142.971 259.436 142.814 259.209C142.662 258.982 142.586 258.713 142.586 258.4C142.586 257.881 142.805 257.441 143.242 257.082C143.684 256.723 144.246 256.543 144.93 256.543C145.648 256.543 146.23 256.729 146.676 257.1C147.125 257.471 147.35 257.945 147.35 258.523H146.26C146.26 258.227 146.133 257.971 145.879 257.756C145.629 257.541 145.312 257.434 144.93 257.434C144.535 257.434 144.227 257.52 144.004 257.691C143.781 257.863 143.67 258.088 143.67 258.365C143.67 258.627 143.773 258.824 143.98 258.957C144.188 259.09 144.561 259.217 145.1 259.338C145.643 259.459 146.082 259.604 146.418 259.771C146.754 259.939 147.002 260.143 147.162 260.381C147.326 260.615 147.408 260.902 147.408 261.242C147.408 261.809 147.182 262.264 146.729 262.607C146.275 262.947 145.688 263.117 144.965 263.117C144.457 263.117 144.008 263.027 143.617 262.848C143.227 262.668 142.92 262.418 142.697 262.098C142.479 261.773 142.369 261.424 142.369 261.049H143.453C143.473 261.412 143.617 261.701 143.887 261.916C144.16 262.127 144.52 262.232 144.965 262.232C145.375 262.232 145.703 262.15 145.949 261.986C146.199 261.818 146.324 261.596 146.324 261.318Z" fill="black"/>
</g>
<path d="M205.354 259.354C205.549 259.158 205.549 258.842 205.354 258.646L202.172 255.464C201.976 255.269 201.66 255.269 201.464 255.464C201.269 255.66 201.269 255.976 201.464 256.172L204.293 259L201.464 261.828C201.269 262.024 201.269 262.34 201.464 262.536C201.66 262.731 201.976 262.731 202.172 262.536L205.354 259.354ZM156 259.5H205V258.5H156V259.5Z" fill="black"/>
<path d="M205.354 102.354C205.549 102.158 205.549 101.842 205.354 101.646L202.172 98.4645C201.976 98.2692 201.66 98.2692 201.464 98.4645C201.269 98.6597 201.269 98.9763 201.464 99.1716L204.293 102L201.464 104.828C201.269 105.024 201.269 105.34 201.464 105.536C201.66 105.731 201.976 105.731 202.172 105.536L205.354 102.354ZM179 102.5L205 102.5L205 101.5L179 101.5L179 102.5Z" fill="black"/>
<line x1="156" y1="240.5" x2="180" y2="240.5" stroke="black"/>
<line x1="179.5" y1="241" x2="179.5" y2="102" stroke="black"/>
<defs>
<filter id="filter0_d" x="200" y="194" width="128" height="128" filterUnits="userSpaceOnUse" color-interpolation-filters="sRGB">
<feFlood flood-opacity="0" result="BackgroundImageFix"/>
<feColorMatrix in="SourceAlpha" type="matrix" values="0 0 0 0 0 0 0 0 0 0 0 0 0 0 0 0 0 0 127 0"/>
<feOffset dy="4"/>
<feGaussianBlur stdDeviation="2"/>
<feColorMatrix type="matrix" values="0 0 0 0 0 0 0 0 0 0 0 0 0 0 0 0 0 0 0.25 0"/>
<feBlend mode="normal" in2="BackgroundImageFix" result="effect1_dropShadow"/>
<feBlend mode="normal" in="SourceGraphic" in2="effect1_dropShadow" result="shape"/>
</filter>
<filter id="filter1_d" x="200" y="36" width="128" height="146" filterUnits="userSpaceOnUse" color-interpolation-filters="sRGB">
<feFlood flood-opacity="0" result="BackgroundImageFix"/>
<feColorMatrix in="SourceAlpha" type="matrix" values="0 0 0 0 0 0 0 0 0 0 0 0 0 0 0 0 0 0 127 0"/>
<feOffset dy="4"/>
<feGaussianBlur stdDeviation="2"/>
<feColorMatrix type="matrix" values="0 0 0 0 0 0 0 0 0 0 0 0 0 0 0 0 0 0 0.25 0"/>
<feBlend mode="normal" in2="BackgroundImageFix" result="effect1_dropShadow"/>
<feBlend mode="normal" in="SourceGraphic" in2="effect1_dropShadow" result="shape"/>
</filter>
<filter id="filter2_d" x="32" y="194" width="128" height="92" filterUnits="userSpaceOnUse" color-interpolation-filters="sRGB">
<feFlood flood-opacity="0" result="BackgroundImageFix"/>
<feColorMatrix in="SourceAlpha" type="matrix" values="0 0 0 0 0 0 0 0 0 0 0 0 0 0 0 0 0 0 127 0"/>
<feOffset dy="4"/>
<feGaussianBlur stdDeviation="2"/>
<feColorMatrix type="matrix" values="0 0 0 0 0 0 0 0 0 0 0 0 0 0 0 0 0 0 0.25 0"/>
<feBlend mode="normal" in2="BackgroundImageFix" result="effect1_dropShadow"/>
<feBlend mode="normal" in="SourceGraphic" in2="effect1_dropShadow" result="shape"/>
</filter>
</defs>
</svg>
