<svg width="360" height="189" viewBox="0 0 360 189" fill="none" xmlns="http://www.w3.org/2000/svg">
<g clip-path="url(#clip0)">
<g filter="url(#filter0_dd)">
<path fill-rule="evenodd" clip-rule="evenodd" d="M350 175H10C8.9 175 8 174.1 8 173V17C8 15.9 8.9 15 10 15H350C351 15 351.9 15.9 352 17V173C352 174.1 351.1 175 350 175Z" fill="#FAFAFA"/>
<path d="M350 174.5H10C9.17614 174.5 8.5 173.824 8.5 173V17C8.5 16.1761 9.17614 15.5 10 15.5H350C350.696 15.5 351.41 16.1506 351.5 17.0242V173C351.5 173.824 350.824 174.5 350 174.5Z" stroke="url(#paint0_linear)"/>
<path d="M350 174.5H10C9.17614 174.5 8.5 173.824 8.5 173V17C8.5 16.1761 9.17614 15.5 10 15.5H350C350.696 15.5 351.41 16.1506 351.5 17.0242V173C351.5 173.824 350.824 174.5 350 174.5Z" stroke="url(#paint1_linear)" style="mix-blend-mode:soft-light"/>
</g>
<path d="M96 110.5H352" stroke="black" stroke-opacity="0.12"/>
<path d="M100.806 42.9736H98.4678V47H97.1484V37.0469H100.443C101.564 37.0469 102.426 37.3021 103.027 37.8125C103.633 38.3229 103.937 39.0658 103.937 40.041C103.937 40.6608 103.768 41.2008 103.431 41.6611C103.098 42.1214 102.633 42.4655 102.036 42.6934L104.374 46.918V47H102.966L100.806 42.9736ZM98.4678 41.9004H100.484C101.136 41.9004 101.653 41.7318 102.036 41.3945C102.424 41.0573 102.617 40.6061 102.617 40.041C102.617 39.4258 102.433 38.9541 102.063 38.626C101.699 38.2979 101.17 38.1315 100.478 38.127H98.4678V41.9004ZM108.653 47.1367C107.651 47.1367 106.835 46.8086 106.206 46.1523C105.577 45.4915 105.263 44.6097 105.263 43.5068V43.2744C105.263 42.5407 105.402 41.8867 105.68 41.3125C105.962 40.7337 106.354 40.2826 106.855 39.959C107.361 39.6309 107.908 39.4668 108.496 39.4668C109.458 39.4668 110.205 39.7835 110.738 40.417C111.271 41.0505 111.538 41.9574 111.538 43.1377V43.6641H106.527C106.546 44.3932 106.757 44.9834 107.163 45.4346C107.573 45.8812 108.093 46.1045 108.722 46.1045C109.168 46.1045 109.547 46.0133 109.856 45.8311C110.166 45.6488 110.438 45.4072 110.67 45.1064L111.442 45.708C110.823 46.6605 109.893 47.1367 108.653 47.1367ZM108.496 40.5059C107.986 40.5059 107.557 40.6927 107.211 41.0664C106.865 41.4355 106.65 41.9551 106.568 42.625H110.273V42.5293C110.237 41.8867 110.064 41.39 109.754 41.0391C109.444 40.6836 109.025 40.5059 108.496 40.5059ZM115.975 46.1045C116.426 46.1045 116.82 45.9678 117.157 45.6943C117.494 45.4209 117.681 45.0791 117.718 44.6689H118.914C118.891 45.0928 118.745 45.4961 118.477 45.8789C118.208 46.2617 117.848 46.5671 117.396 46.7949C116.95 47.0228 116.476 47.1367 115.975 47.1367C114.967 47.1367 114.165 46.8018 113.568 46.1318C112.976 45.4574 112.68 44.5368 112.68 43.3701V43.1582C112.68 42.4382 112.812 41.7979 113.076 41.2373C113.34 40.6768 113.719 40.2415 114.211 39.9316C114.708 39.6217 115.293 39.4668 115.968 39.4668C116.797 39.4668 117.485 39.7152 118.032 40.2119C118.584 40.7087 118.878 41.3535 118.914 42.1465H117.718C117.681 41.668 117.499 41.276 117.171 40.9707C116.847 40.6608 116.446 40.5059 115.968 40.5059C115.325 40.5059 114.826 40.7383 114.471 41.2031C114.12 41.6634 113.944 42.3311 113.944 43.2061V43.4453C113.944 44.2975 114.12 44.9538 114.471 45.4141C114.822 45.8743 115.323 46.1045 115.975 46.1045ZM120.001 43.2334C120.001 42.5088 120.142 41.8571 120.425 41.2783C120.712 40.6995 121.108 40.2529 121.614 39.9385C122.125 39.624 122.706 39.4668 123.357 39.4668C124.365 39.4668 125.178 39.8154 125.798 40.5127C126.422 41.21 126.734 42.1374 126.734 43.2949V43.3838C126.734 44.1038 126.595 44.751 126.317 45.3252C126.044 45.8949 125.65 46.3392 125.135 46.6582C124.624 46.9772 124.036 47.1367 123.371 47.1367C122.368 47.1367 121.555 46.7881 120.931 46.0908C120.311 45.3936 120.001 44.4707 120.001 43.3223V43.2334ZM121.272 43.3838C121.272 44.2041 121.462 44.8626 121.84 45.3594C122.223 45.8561 122.733 46.1045 123.371 46.1045C124.014 46.1045 124.524 45.8538 124.902 45.3525C125.281 44.8467 125.47 44.1403 125.47 43.2334C125.47 42.4222 125.276 41.766 124.889 41.2646C124.506 40.7588 123.995 40.5059 123.357 40.5059C122.733 40.5059 122.229 40.7542 121.847 41.251C121.464 41.7477 121.272 42.4587 121.272 43.3838ZM131.896 40.7383C131.704 40.7064 131.497 40.6904 131.273 40.6904C130.444 40.6904 129.881 41.0436 129.585 41.75V47H128.32V39.6035H129.551L129.571 40.458C129.986 39.7972 130.574 39.4668 131.335 39.4668C131.581 39.4668 131.768 39.4987 131.896 39.5625V40.7383ZM132.62 43.2402C132.62 42.1055 132.889 41.194 133.427 40.5059C133.965 39.8132 134.669 39.4668 135.539 39.4668C136.405 39.4668 137.091 39.763 137.597 40.3555V36.5H138.861V47H137.699L137.638 46.207C137.132 46.8268 136.428 47.1367 135.525 47.1367C134.669 47.1367 133.969 46.7858 133.427 46.084C132.889 45.3822 132.62 44.4661 132.62 43.3359V43.2402ZM133.885 43.3838C133.885 44.2223 134.058 44.8786 134.404 45.3525C134.751 45.8265 135.229 46.0635 135.84 46.0635C136.642 46.0635 137.228 45.7035 137.597 44.9834V41.5859C137.218 40.8887 136.637 40.54 135.854 40.54C135.234 40.54 134.751 40.7793 134.404 41.2578C134.058 41.7363 133.885 42.445 133.885 43.3838ZM142.204 47H140.939V39.6035H142.204V47ZM140.837 37.6416C140.837 37.4365 140.898 37.2633 141.021 37.1221C141.149 36.9808 141.336 36.9102 141.582 36.9102C141.828 36.9102 142.015 36.9808 142.143 37.1221C142.27 37.2633 142.334 37.4365 142.334 37.6416C142.334 37.8467 142.27 38.0176 142.143 38.1543C142.015 38.291 141.828 38.3594 141.582 38.3594C141.336 38.3594 141.149 38.291 141.021 38.1543C140.898 38.0176 140.837 37.8467 140.837 37.6416ZM145.431 39.6035L145.472 40.5332C146.037 39.8223 146.775 39.4668 147.687 39.4668C149.25 39.4668 150.038 40.3486 150.052 42.1123V47H148.787V42.1055C148.783 41.5723 148.66 41.1781 148.418 40.9229C148.181 40.6676 147.81 40.54 147.304 40.54C146.894 40.54 146.534 40.6494 146.224 40.8682C145.914 41.0869 145.672 41.374 145.499 41.7295V47H144.234V39.6035H145.431ZM151.658 43.2402C151.658 42.0872 151.925 41.1712 152.458 40.4922C152.991 39.8086 153.698 39.4668 154.577 39.4668C155.479 39.4668 156.184 39.7858 156.689 40.4238L156.751 39.6035H157.906V46.8223C157.906 47.7793 157.621 48.5335 157.052 49.085C156.487 49.6364 155.726 49.9121 154.769 49.9121C154.235 49.9121 153.714 49.7982 153.203 49.5703C152.693 49.3424 152.303 49.0303 152.034 48.6338L152.69 47.875C153.233 48.5449 153.896 48.8799 154.68 48.8799C155.295 48.8799 155.773 48.7067 156.115 48.3604C156.462 48.014 156.635 47.5264 156.635 46.8975V46.2617C156.129 46.8451 155.438 47.1367 154.563 47.1367C153.698 47.1367 152.996 46.7881 152.458 46.0908C151.925 45.3936 151.658 44.4434 151.658 43.2402ZM152.93 43.3838C152.93 44.2178 153.101 44.874 153.442 45.3525C153.784 45.8265 154.263 46.0635 154.878 46.0635C155.675 46.0635 156.261 45.7012 156.635 44.9766V41.5996C156.247 40.8932 155.666 40.54 154.892 40.54C154.276 40.54 153.796 40.7793 153.449 41.2578C153.103 41.7363 152.93 42.445 152.93 43.3838ZM168.987 44.4023H164.817L163.881 47H162.527L166.328 37.0469H167.477L171.284 47H169.938L168.987 44.4023ZM165.214 43.3223H168.598L166.902 38.667L165.214 43.3223ZM175.393 46.1045C175.844 46.1045 176.238 45.9678 176.575 45.6943C176.912 45.4209 177.099 45.0791 177.136 44.6689H178.332C178.309 45.0928 178.163 45.4961 177.895 45.8789C177.626 46.2617 177.266 46.5671 176.814 46.7949C176.368 47.0228 175.894 47.1367 175.393 47.1367C174.385 47.1367 173.583 46.8018 172.986 46.1318C172.394 45.4574 172.098 44.5368 172.098 43.3701V43.1582C172.098 42.4382 172.23 41.7979 172.494 41.2373C172.758 40.6768 173.137 40.2415 173.629 39.9316C174.126 39.6217 174.711 39.4668 175.386 39.4668C176.215 39.4668 176.903 39.7152 177.45 40.2119C178.002 40.7087 178.296 41.3535 178.332 42.1465H177.136C177.099 41.668 176.917 41.276 176.589 40.9707C176.265 40.6608 175.864 40.5059 175.386 40.5059C174.743 40.5059 174.244 40.7383 173.889 41.2031C173.538 41.6634 173.362 42.3311 173.362 43.2061V43.4453C173.362 44.2975 173.538 44.9538 173.889 45.4141C174.24 45.8743 174.741 46.1045 175.393 46.1045ZM181.47 37.8125V39.6035H182.851V40.5811H181.47V45.168C181.47 45.4642 181.531 45.6875 181.654 45.8379C181.777 45.9837 181.987 46.0566 182.283 46.0566C182.429 46.0566 182.63 46.0293 182.885 45.9746V47C182.552 47.0911 182.229 47.1367 181.914 47.1367C181.349 47.1367 180.923 46.9658 180.636 46.624C180.349 46.2822 180.205 45.7969 180.205 45.168V40.5811H178.858V39.6035H180.205V37.8125H181.47ZM185.708 47H184.443V39.6035H185.708V47ZM184.341 37.6416C184.341 37.4365 184.402 37.2633 184.525 37.1221C184.653 36.9808 184.84 36.9102 185.086 36.9102C185.332 36.9102 185.519 36.9808 185.646 37.1221C185.774 37.2633 185.838 37.4365 185.838 37.6416C185.838 37.8467 185.774 38.0176 185.646 38.1543C185.519 38.291 185.332 38.3594 185.086 38.3594C184.84 38.3594 184.653 38.291 184.525 38.1543C184.402 38.0176 184.341 37.8467 184.341 37.6416ZM190.179 45.2842L192.011 39.6035H193.303L190.65 47H189.687L187.007 39.6035H188.299L190.179 45.2842ZM195.894 47H194.629V39.6035H195.894V47ZM194.526 37.6416C194.526 37.4365 194.588 37.2633 194.711 37.1221C194.839 36.9808 195.025 36.9102 195.271 36.9102C195.518 36.9102 195.704 36.9808 195.832 37.1221C195.96 37.2633 196.023 37.4365 196.023 37.6416C196.023 37.8467 195.96 38.0176 195.832 38.1543C195.704 38.291 195.518 38.3594 195.271 38.3594C195.025 38.3594 194.839 38.291 194.711 38.1543C194.588 38.0176 194.526 37.8467 194.526 37.6416ZM199.64 37.8125V39.6035H201.021V40.5811H199.64V45.168C199.64 45.4642 199.701 45.6875 199.824 45.8379C199.947 45.9837 200.157 46.0566 200.453 46.0566C200.599 46.0566 200.799 46.0293 201.055 45.9746V47C200.722 47.0911 200.398 47.1367 200.084 47.1367C199.519 47.1367 199.093 46.9658 198.806 46.624C198.519 46.2822 198.375 45.7969 198.375 45.168V40.5811H197.028V39.6035H198.375V37.8125H199.64ZM204.924 45.1475L206.646 39.6035H208L205.026 48.1416C204.566 49.3721 203.835 49.9873 202.832 49.9873L202.593 49.9668L202.121 49.8779V48.8525L202.463 48.8799C202.891 48.8799 203.224 48.7933 203.461 48.6201C203.702 48.4469 203.901 48.1302 204.056 47.6699L204.336 46.918L201.697 39.6035H203.078L204.924 45.1475Z" fill="black" fill-opacity="0.87"/>
<path d="M104.543 79H102.363V64.5508L97.9922 66.1562V64.1875L104.203 61.8555H104.543V79ZM122.074 79H110.895V77.4414L116.801 70.8789C117.676 69.8867 118.277 69.082 118.605 68.4648C118.941 67.8398 119.109 67.1953 119.109 66.5312C119.109 65.6406 118.84 64.9102 118.301 64.3398C117.762 63.7695 117.043 63.4844 116.145 63.4844C115.066 63.4844 114.227 63.793 113.625 64.4102C113.031 65.0195 112.734 65.8711 112.734 66.9648H110.566C110.566 65.3945 111.07 64.125 112.078 63.1562C113.094 62.1875 114.449 61.7031 116.145 61.7031C117.73 61.7031 118.984 62.1211 119.906 62.957C120.828 63.7852 121.289 64.8906 121.289 66.2734C121.289 67.9531 120.219 69.9531 118.078 72.2734L113.508 77.2305H122.074V79ZM124.523 77.8633C124.523 77.4883 124.633 77.1758 124.852 76.9258C125.078 76.6758 125.414 76.5508 125.859 76.5508C126.305 76.5508 126.641 76.6758 126.867 76.9258C127.102 77.1758 127.219 77.4883 127.219 77.8633C127.219 78.2227 127.102 78.5234 126.867 78.7656C126.641 79.0078 126.305 79.1289 125.859 79.1289C125.414 79.1289 125.078 79.0078 124.852 78.7656C124.633 78.5234 124.523 78.2227 124.523 77.8633ZM124.535 67.5156C124.535 67.1406 124.645 66.8281 124.863 66.5781C125.09 66.3281 125.426 66.2031 125.871 66.2031C126.316 66.2031 126.652 66.3281 126.879 66.5781C127.113 66.8281 127.23 67.1406 127.23 67.5156C127.23 67.875 127.113 68.1758 126.879 68.418C126.652 68.6602 126.316 68.7812 125.871 68.7812C125.426 68.7812 125.09 68.6602 124.863 68.418C124.645 68.1758 124.535 67.875 124.535 67.5156ZM140.883 71.7227C140.883 74.2617 140.449 76.1484 139.582 77.3828C138.715 78.6172 137.359 79.2344 135.516 79.2344C133.695 79.2344 132.348 78.6328 131.473 77.4297C130.598 76.2188 130.145 74.4141 130.113 72.0156V69.1211C130.113 66.6133 130.547 64.75 131.414 63.5312C132.281 62.3125 133.641 61.7031 135.492 61.7031C137.328 61.7031 138.68 62.293 139.547 63.4727C140.414 64.6445 140.859 66.457 140.883 68.9102V71.7227ZM138.715 68.7578C138.715 66.9219 138.457 65.5859 137.941 64.75C137.426 63.9062 136.609 63.4844 135.492 63.4844C134.383 63.4844 133.574 63.9023 133.066 64.7383C132.559 65.5742 132.297 66.8594 132.281 68.5938V72.0625C132.281 73.9062 132.547 75.2695 133.078 76.1523C133.617 77.0273 134.43 77.4648 135.516 77.4648C136.586 77.4648 137.379 77.0508 137.895 76.2227C138.418 75.3945 138.691 74.0898 138.715 72.3086V68.7578ZM152.812 73.2695H155.18V75.0391H152.812V79H150.633V75.0391H142.863V73.7617L150.504 61.9375H152.812V73.2695ZM145.324 73.2695H150.633V64.9023L150.375 65.3711L145.324 73.2695ZM165.469 82.1641H163.723V61.9375H165.469V82.1641ZM175.898 70.4453L176.766 61.9375H185.508V63.9414H178.605L178.09 68.5938C178.926 68.1016 179.875 67.8555 180.938 67.8555C182.492 67.8555 183.727 68.3711 184.641 69.4023C185.555 70.4258 186.012 71.8125 186.012 73.5625C186.012 75.3203 185.535 76.707 184.582 77.7227C183.637 78.7305 182.312 79.2344 180.609 79.2344C179.102 79.2344 177.871 78.8164 176.918 77.9805C175.965 77.1445 175.422 75.9883 175.289 74.5117H177.34C177.473 75.4883 177.82 76.2266 178.383 76.7266C178.945 77.2188 179.688 77.4648 180.609 77.4648C181.617 77.4648 182.406 77.1211 182.977 76.4336C183.555 75.7461 183.844 74.7969 183.844 73.5859C183.844 72.4453 183.531 71.5312 182.906 70.8438C182.289 70.1484 181.465 69.8008 180.434 69.8008C179.488 69.8008 178.746 70.0078 178.207 70.4219L177.633 70.8906L175.898 70.4453ZM188.648 77.8633C188.648 77.4883 188.758 77.1758 188.977 76.9258C189.203 76.6758 189.539 76.5508 189.984 76.5508C190.43 76.5508 190.766 76.6758 190.992 76.9258C191.227 77.1758 191.344 77.4883 191.344 77.8633C191.344 78.2227 191.227 78.5234 190.992 78.7656C190.766 79.0078 190.43 79.1289 189.984 79.1289C189.539 79.1289 189.203 79.0078 188.977 78.7656C188.758 78.5234 188.648 78.2227 188.648 77.8633ZM203.859 73.2695H206.227V75.0391H203.859V79H201.68V75.0391H193.91V73.7617L201.551 61.9375H203.859V73.2695ZM196.371 73.2695H201.68V64.9023L201.422 65.3711L196.371 73.2695ZM216.398 66.3203L216.457 67.7266C217.387 66.6328 218.641 66.0859 220.219 66.0859C221.992 66.0859 223.199 66.7656 223.84 68.125C224.262 67.5156 224.809 67.0234 225.48 66.6484C226.16 66.2734 226.961 66.0859 227.883 66.0859C230.664 66.0859 232.078 67.5586 232.125 70.5039V79H229.957V70.6328C229.957 69.7266 229.75 69.0508 229.336 68.6055C228.922 68.1523 228.227 67.9258 227.25 67.9258C226.445 67.9258 225.777 68.168 225.246 68.6523C224.715 69.1289 224.406 69.7734 224.32 70.5859V79H222.141V70.6914C222.141 68.8477 221.238 67.9258 219.434 67.9258C218.012 67.9258 217.039 68.5312 216.516 69.7422V79H214.348V66.3203H216.398ZM246.117 72.8008C246.117 74.7305 245.676 76.2852 244.793 77.4648C243.91 78.6445 242.715 79.2344 241.207 79.2344C239.668 79.2344 238.457 78.7461 237.574 77.7695V83.875H235.406V66.3203H237.387L237.492 67.7266C238.375 66.6328 239.602 66.0859 241.172 66.0859C242.695 66.0859 243.898 66.6602 244.781 67.8086C245.672 68.957 246.117 70.5547 246.117 72.6016V72.8008ZM243.949 72.5547C243.949 71.125 243.645 69.9961 243.035 69.168C242.426 68.3398 241.59 67.9258 240.527 67.9258C239.215 67.9258 238.23 68.5078 237.574 69.6719V75.7305C238.223 76.8867 239.215 77.4648 240.551 77.4648C241.59 77.4648 242.414 77.0547 243.023 76.2344C243.641 75.4062 243.949 74.1797 243.949 72.5547ZM251.051 67.8555C252.012 66.6758 253.262 66.0859 254.801 66.0859C257.48 66.0859 258.832 67.5977 258.855 70.6211V79H256.688V70.6094C256.68 69.6953 256.469 69.0195 256.055 68.582C255.648 68.1445 255.012 67.9258 254.145 67.9258C253.441 67.9258 252.824 68.1133 252.293 68.4883C251.762 68.8633 251.348 69.3555 251.051 69.9648V79H248.883V61H251.051V67.8555Z" fill="black" fill-opacity="0.87"/>
<path d="M134.341 142.874H130.545V145.718H134.982V147H128.939V137.758H134.938V139.053H130.545V141.604H134.341V142.874ZM139.97 141.097L141.913 137.758H143.766L140.973 142.341L143.83 147H141.957L139.97 143.61L137.977 147H136.111L138.974 142.341L136.174 137.758H138.028L139.97 141.097ZM147.211 147H145.612V137.758H147.211V147ZM156.173 139.053H153.291V147H151.698V139.053H148.841V137.758H156.173V139.053Z" fill="black" fill-opacity="0.54"/>
<path opacity="0.54" fill-rule="evenodd" clip-rule="evenodd" d="M108 141.586L102.414 136L101 137.414L106.585 143L101 148.586L102.414 150L108 144.414L113.586 150L114.999 148.586L109.414 143L114.999 137.414L113.586 136L108 141.586Z" fill="black"/>
<path d="M257.545 143.566V147H255.939V137.758H259.475C260.508 137.758 261.326 138.027 261.932 138.564C262.541 139.101 262.846 139.812 262.846 140.697C262.846 141.602 262.547 142.307 261.951 142.811C261.358 143.314 260.527 143.566 259.456 143.566H257.545ZM257.545 142.277H259.475C260.046 142.277 260.482 142.144 260.783 141.877C261.083 141.607 261.233 141.217 261.233 140.709C261.233 140.21 261.081 139.812 260.776 139.516C260.472 139.216 260.053 139.061 259.52 139.053H257.545V142.277ZM268.798 144.848H265.218L264.469 147H262.8L266.291 137.758H267.732L271.229 147H269.554L268.798 144.848ZM265.669 143.553H268.348L267.008 139.719L265.669 143.553ZM279.429 137.758V143.934C279.429 144.916 279.114 145.694 278.483 146.27C277.857 146.841 277.021 147.127 275.976 147.127C274.918 147.127 274.078 146.846 273.456 146.283C272.834 145.716 272.523 144.931 272.523 143.928V137.758H274.123V143.94C274.123 144.558 274.279 145.03 274.592 145.356C274.905 145.682 275.367 145.845 275.976 145.845C277.212 145.845 277.83 145.193 277.83 143.89V137.758H279.429ZM286.48 144.62C286.48 144.213 286.336 143.9 286.048 143.68C285.765 143.46 285.251 143.238 284.506 143.014C283.761 142.789 283.169 142.54 282.729 142.265C281.886 141.736 281.465 141.046 281.465 140.195C281.465 139.451 281.768 138.837 282.373 138.354C282.982 137.872 283.772 137.631 284.741 137.631C285.384 137.631 285.957 137.749 286.461 137.986C286.965 138.223 287.36 138.562 287.648 139.002C287.936 139.438 288.08 139.922 288.08 140.456H286.48C286.48 139.973 286.328 139.597 286.023 139.326C285.722 139.051 285.291 138.913 284.728 138.913C284.203 138.913 283.795 139.025 283.503 139.25C283.215 139.474 283.071 139.787 283.071 140.189C283.071 140.528 283.228 140.811 283.541 141.04C283.854 141.264 284.37 141.484 285.09 141.7C285.809 141.911 286.387 142.155 286.823 142.43C287.259 142.701 287.578 143.014 287.781 143.369C287.984 143.72 288.086 144.133 288.086 144.607C288.086 145.377 287.79 145.991 287.197 146.448C286.609 146.901 285.809 147.127 284.798 147.127C284.129 147.127 283.514 147.004 282.951 146.759C282.392 146.509 281.956 146.166 281.643 145.73C281.334 145.295 281.18 144.787 281.18 144.207H282.786C282.786 144.732 282.959 145.138 283.306 145.426C283.653 145.714 284.15 145.857 284.798 145.857C285.356 145.857 285.775 145.745 286.055 145.521C286.338 145.292 286.48 144.992 286.48 144.62ZM295.397 142.874H291.601V145.718H296.038V147H289.995V137.758H295.994V139.053H291.601V141.604H295.397V142.874Z" fill="black" fill-opacity="0.54"/>
<g opacity="0.54">
<path d="M229 150H233V136H229V150ZM237 136V150H241V136H237Z" fill="black"/>
</g>
<path d="M54.4767 43.7865C57.0434 43.7865 59.1434 41.6865 59.1434 39.1198C59.1434 36.5531 57.0434 34.4531 54.4767 34.4531C51.9101 34.4531 49.8101 36.5531 49.8101 39.1198C49.8101 41.6865 51.9101 43.7865 54.4767 43.7865ZM46.0767 76.2198L48.4101 65.9531L53.3101 70.6198V84.6198H57.9767V67.1198L53.0767 62.4531L54.4767 55.4531C57.5101 58.9531 62.1767 61.2865 67.3101 61.2865V56.6198C62.8767 56.6198 59.1434 54.2865 57.2767 51.0198L54.9434 47.2865C54.0101 45.8865 52.6101 44.9531 50.9767 44.9531C50.2767 44.9531 49.8101 45.1865 49.1101 45.1865L36.9767 50.3198V61.2865H41.6434V53.3531L45.8434 51.7198L42.1101 70.6198L30.6767 68.2865L29.7434 72.9531L46.0767 76.2198Z" fill="black"/>
</g>
<defs>
<filter id="filter0_dd" x="0" y="7" width="360" height="184" filterUnits="userSpaceOnUse" color-interpolation-filters="sRGB">
<feFlood flood-opacity="0" result="BackgroundImageFix"/>
<feColorMatrix in="SourceAlpha" type="matrix" values="0 0 0 0 0 0 0 0 0 0 0 0 0 0 0 0 0 0 127 0"/>
<feOffset dy="8"/>
<feGaussianBlur stdDeviation="4"/>
<feColorMatrix type="matrix" values="0 0 0 0 0 0 0 0 0 0 0 0 0 0 0 0 0 0 0.24 0"/>
<feBlend mode="normal" in2="BackgroundImageFix" result="effect1_dropShadow"/>
<feColorMatrix in="SourceAlpha" type="matrix" values="0 0 0 0 0 0 0 0 0 0 0 0 0 0 0 0 0 0 127 0"/>
<feOffset/>
<feGaussianBlur stdDeviation="4"/>
<feColorMatrix type="matrix" values="0 0 0 0 0 0 0 0 0 0 0 0 0 0 0 0 0 0 0.12 0"/>
<feBlend mode="normal" in2="effect1_dropShadow" result="effect2_dropShadow"/>
<feBlend mode="normal" in="SourceGraphic" in2="effect2_dropShadow" result="shape"/>
</filter>
<linearGradient id="paint0_linear" x1="8" y1="15" x2="8" y2="175" gradientUnits="userSpaceOnUse">
<stop stop-opacity="0"/>
<stop offset="0.8" stop-opacity="0"/>
<stop offset="0.95" stop-opacity="0.02"/>
<stop offset="0.986408" stop-opacity="0.04"/>
</linearGradient>
<linearGradient id="paint1_linear" x1="8" y1="15" x2="8" y2="175" gradientUnits="userSpaceOnUse">
<stop stop-color="white" stop-opacity="0.2"/>
<stop offset="0.0490476" stop-color="white" stop-opacity="0.1"/>
<stop offset="0.2" stop-color="white" stop-opacity="0"/>
<stop offset="1" stop-color="white" stop-opacity="0"/>
</linearGradient>
<clipPath id="clip0">
<rect width="360" height="189" fill="white"/>
</clipPath>
</defs>
</svg>
