<svg width="24" height="24" viewBox="0 0 24 24" fill="none" xmlns="http://www.w3.org/2000/svg">
<path d="M13.5 5.5C14.6 5.5 15.5 4.6 15.5 3.5C15.5 2.4 14.6 1.5 13.5 1.5C12.4 1.5 11.5 2.4 11.5 3.5C11.5 4.6 12.4 5.5 13.5 5.5Z" fill="black"/>
<path d="M7.084 6.918L9.404 7.379L8.396 12.455L6.076 11.994L7.084 6.918Z" fill="black"/>
<path d="M9.8 8.9L7 23H9.1L10.9 15L13 17V23H15V15.5L12.9 13.5L13.5 10.5C14.6311 11.8051 16.292 12.7316 18.1535 12.9504L16 23H17L20 9L19.044 8.795L18.5751 10.9832C16.863 10.8468 15.4396 9.89433 14.7 8.6L13.7 7C13.503 6.65 13.204 6.369 12.842 6.195C12.481 6.02 12.075 5.961 11.678 6.024C11.282 6.088 10.915 6.271 10.626 6.549C10.337 6.828 10.14 7.188 10.062 7.582L9.8 8.9Z" fill="black"/>
</svg>
