<svg width="24" height="24" viewBox="0 0 24 24" fill="none" xmlns="http://www.w3.org/2000/svg">
<path d="M20.0023 21C18.6123 21 17.2223 20.53 16.0023 19.68C13.5623 21.39 10.4423 21.39 8.00234 19.68C6.78234 20.53 5.39234 21 4.00234 21H2.00234V23H4.00234C5.38234 23 6.74234 22.65 8.00234 22.01C10.5223 23.3 13.4823 23.3 16.0023 22.01C17.2623 22.66 18.6223 23 20.0023 23H22.0023V21H20.0023Z" fill="black"/>
<path d="M9 1C13.5 3 17.5 7 18 12L6 13.5C9.07947 10.9142 8.94372 6.99592 9 1Z" fill="black"/>
<path d="M4 19C5.6 19 7.02 18.12 8 17C8.98 18.12 10.4 19 12 19C13.6 19 15.02 18.12 16 17C16.98 18.12 18.3977 19 19.9977 19L22.0023 13.5L1.99767 16L4 19Z" fill="black"/>
</svg>
